STARTFONT 2.1
FONT -FreeType-Racer-Medium-R-Normal--128-960-96-96-P-661-ISO10646-1
SIZE 96 96 96
FONTBOUNDINGBOX 110 135 0 -21
COMMENT "Generated by fontforge, http://fontforge.sourceforge.net"
COMMENT ""
STARTPROPERTIES 16
FOUNDRY "FreeType"
FAMILY_NAME "Racer"
WEIGHT_NAME "Medium"
SLANT "R"
SETWIDTH_NAME "Normal"
ADD_STYLE_NAME ""
PIXEL_SIZE 98
POINT_SIZE 960
RESOLUTION_X 96
RESOLUTION_Y 96
SPACING "P"
AVERAGE_WIDTH 661
CHARSET_REGISTRY "ISO10646"
CHARSET_ENCODING "1"
FONT_ASCENT 113
FONT_DESCENT 28
ENDPROPERTIES
CHARS 37
STARTCHAR $0030
ENCODING 48
SWIDTH 890 0
DWIDTH 114 0
BBX 100 95 0 0
BITMAP
00000000FFFFFFFFFFFFC00000
0000000FFFFFFFFFFFFFFC0000
0000003FFFFFFFFFFFFFFF0000
000000FFFFFFFFFFFFFFFFC000
000003FFFFFFFFFFFFFFFFE000
00000FFFFFFFFFFFFFFFFFF000
00001FFFFFFFFFFFFFFFFFF800
00003FFFFFFFFFFFFFFFFFFC00
00007FFFFFFFFFFFFFFFFFFE00
0000FFFFFFFFFFFFFFFFFFFF00
0001FFFFFFFFFFFFFFFFFFFF80
0003FFFFFFFFFFFFFFFFFFFF80
0007FFFFFFFFFFFFFFFFFFFFC0
0007FFFFFFFFFFFFFFFFFFFFC0
000FFFFFFFFFFFFFFFFFFFFFE0
001FFFFFFFFFFFFFFFFFFFFFE0
001FFFFFFFFFFFFFFFFFFFFFE0
003FFFFFFFFFFFFFFFFFFFFFE0
003FFFFFFFFFFFFFFFFFFFFFF0
003FFFFFC00000000001FFFFF0
007FFFFF000000000000FFFFF0
007FFFFE0000000000007FFFF0
007FFFFE0000000000007FFFF0
007FFFFC0000000000007FFFF0
00FFFFFC0000000000007FFFF0
00FFFFFC0000000000007FFFF0
00FFFFFC0000000000007FFFF0
00FFFFF80000000000007FFFF0
01FFFFF80000000000007FFFF0
01FFFFF80000000000007FFFF0
01FFFFF00000000000007FFFF0
01FFFFF00000000000007FFFF0
01FFFFF00000000000007FFFF0
03FFFFF00000000000007FFFF0
03FFFFE00000000000007FFFF0
03FFFFE00000000000007FFFF0
03FFFFE00000000000007FFFF0
07FFFFE00000000000007FFFF0
07FFFFC00000000000007FFFF0
07FFFFC00000000000007FFFF0
07FFFFC00000000000007FFFF0
07FFFFC00000000000007FFFF0
0FFFFF800000000000007FFFF0
0FFFFF800000000000007FFFF0
0FFFFF800000000000007FFFF0
0FFFFF000000000000007FFFF0
1FFFFF000000000000007FFFF0
1FFFFF000000000000007FFFF0
1FFFFE000000000000007FFFF0
1FFFFE000000000000007FFFF0
1FFFFE000000000000007FFFF0
3FFFFE000000000000007FFFF0
3FFFFC000000000000007FFFF0
3FFFFC000000000000007FFFF0
3FFFFC000000000000007FFFF0
3FFFF8000000000000007FFFF0
7FFFF8000000000000007FFFF0
7FFFF8000000000000007FFFF0
7FFFF8000000000000007FFFF0
7FFFF0000000000000007FFFF0
FFFFF0000000000000007FFFF0
FFFFF0000000000000007FFFF0
FFFFE0000000000000007FFFF0
FFFFE0000000000000007FFFF0
FFFFE0000000000000007FFFF0
FFFFE0000000000000007FFFF0
FFFFE0000000000000007FFFF0
FFFFE0000000000000007FFFF0
FFFFE0000000000000007FFFF0
FFFFF0000000000000007FFFF0
FFFFF0000000000000007FFFF0
7FFFF8000000000000007FFFF0
7FFFFC000000000000007FFFF0
7FFFFE000000000000007FFFF0
7FFFFF000000000000007FFFF0
3FFFFFE0000000000000FFFFF0
3FFFFFFFFFFFFFFFFFFFFFFFF0
3FFFFFFFFFFFFFFFFFFFFFFFE0
1FFFFFFFFFFFFFFFFFFFFFFFE0
0FFFFFFFFFFFFFFFFFFFFFFFE0
0FFFFFFFFFFFFFFFFFFFFFFFE0
07FFFFFFFFFFFFFFFFFFFFFFC0
07FFFFFFFFFFFFFFFFFFFFFFC0
03FFFFFFFFFFFFFFFFFFFFFF80
01FFFFFFFFFFFFFFFFFFFFFF80
00FFFFFFFFFFFFFFFFFFFFFF00
007FFFFFFFFFFFFFFFFFFFFE00
003FFFFFFFFFFFFFFFFFFFFC00
001FFFFFFFFFFFFFFFFFFFF800
000FFFFFFFFFFFFFFFFFFFF000
0003FFFFFFFFFFFFFFFFFFE000
0000FFFFFFFFFFFFFFFFFFC000
00003FFFFFFFFFFFFFFFFF0000
00000FFFFFFFFFFFFFFFFC0000
000000FFFFFFFFFFFFFFE00000
ENDCHAR
STARTCHAR $0031
ENCODING 49
SWIDTH 390 0
DWIDTH 50 0
BBX 40 97 0 -2
BITMAP
01FE000000
0FFFE00000
1FFFFC0000
3FFFFF0000
7FFFFFC000
7FFFFFE000
7FFFFFF000
FFFFFFFC00
FFFFFFFE00
FFFFFFFF00
FFFFFFFF80
FFFFFFFF80
7FFFFFFFC0
7FFFFFFFE0
7FFFFFFFF0
3FFFFFFFF0
1FFFFFFFF8
0FFFFFFFF8
03FFFFFFFC
0007FFFFFC
0001FFFFFC
00007FFFFE
00003FFFFE
00001FFFFE
00001FFFFE
00000FFFFF
00000FFFFF
000007FFFF
000007FFFF
000007FFFF
000007FFFF
000007FFFF
000007FFFF
000007FFFF
000007FFFF
000007FFFF
000007FFFF
000007FFFF
000007FFFF
000007FFFF
000007FFFF
000007FFFF
000007FFFF
000007FFFF
000007FFFF
000007FFFF
000007FFFF
000007FFFF
000007FFFF
000007FFFF
000007FFFF
000007FFFF
000007FFFF
000007FFFF
000007FFFF
000007FFFF
000007FFFF
000007FFFF
000007FFFF
000007FFFF
000007FFFF
000007FFFF
000007FFFF
000007FFFF
000007FFFF
000007FFFF
000007FFFF
000007FFFF
000007FFFF
000007FFFF
000007FFFF
000007FFFF
000007FFFF
000007FFFF
000007FFFF
000007FFFF
000007FFFF
000007FFFF
000007FFFF
000007FFFF
000007FFFF
000007FFFF
000007FFFF
000007FFFF
000007FFFF
000007FFFF
000007FFFF
000007FFFF
000007FFFF
000007FFFF
000007FFFF
000003FFFE
000003FFFE
000001FFFC
000000FFF8
0000007FF0
0000001FC0
ENDCHAR
STARTCHAR $0032
ENCODING 50
SWIDTH 890 0
DWIDTH 114 0
BBX 100 95 0 0
BITMAP
00003FFFFFFFFFFFFFFC000000
0003FFFFFFFFFFFFFFFFC00000
000FFFFFFFFFFFFFFFFFF00000
003FFFFFFFFFFFFFFFFFFC0000
007FFFFFFFFFFFFFFFFFFF0000
00FFFFFFFFFFFFFFFFFFFF8000
01FFFFFFFFFFFFFFFFFFFFC000
03FFFFFFFFFFFFFFFFFFFFE000
07FFFFFFFFFFFFFFFFFFFFF000
0FFFFFFFFFFFFFFFFFFFFFF800
1FFFFFFFFFFFFFFFFFFFFFFC00
1FFFFFFFFFFFFFFFFFFFFFFE00
3FFFFFFFFFFFFFFFFFFFFFFF00
3FFFFFFFFFFFFFFFFFFFFFFF00
7FFFFFFFFFFFFFFFFFFFFFFF80
7FFFFFFFFFFFFFFFFFFFFFFF80
7FFFFFFFFFFFFFFFFFFFFFFFC0
7FFFFFFFFFFFFFFFFFFFFFFFC0
FFFFFFFFFFFFFFFFFFFFFFFFE0
FFFFF00000000000001FFFFFE0
FFFFE000000000000007FFFFE0
FFFFE000000000000001FFFFE0
FFFFE000000000000001FFFFF0
FFFFE000000000000000FFFFF0
FFFFE000000000000000FFFFF0
FFFFE0000000000000007FFFF0
7FFFC0000000000000007FFFF0
7FFFC0000000000000007FFFF0
3FFF80000000000000007FFFF0
1FFF00000000000000007FFFF0
0FFE0000000000000000FFFFF0
01F00000000000000000FFFFF0
00000000000000000001FFFFF0
00000000000000000001FFFFE0
00000000000000000007FFFFE0
0000000000000000000FFFFFE0
000000FFFFFFFFFFFFFFFFFFE0
00000FFFFFFFFFFFFFFFFFFFC0
00003FFFFFFFFFFFFFFFFFFFC0
0001FFFFFFFFFFFFFFFFFFFF80
0003FFFFFFFFFFFFFFFFFFFF80
000FFFFFFFFFFFFFFFFFFFFF00
001FFFFFFFFFFFFFFFFFFFFF00
003FFFFFFFFFFFFFFFFFFFFE00
007FFFFFFFFFFFFFFFFFFFFC00
00FFFFFFFFFFFFFFFFFFFFF800
01FFFFFFFFFFFFFFFFFFFFF800
03FFFFFFFFFFFFFFFFFFFFF000
07FFFFFFFFFFFFFFFFFFFFE000
07FFFFFFFFFFFFFFFFFFFF8000
0FFFFFFFFFFFFFFFFFFFFF0000
1FFFFFFFFFFFFFFFFFFFFC0000
1FFFFFFFFFFFFFFFFFFFF80000
3FFFFFFFFFFFFFFFFFFFC00000
3FFFFFFFFFFFFFFFFFFE000000
3FFFFFE0000000000000000000
7FFFFF00000000000000000000
7FFFFE00000000000000000000
7FFFFC00000000000000000000
7FFFF800000000000000000000
FFFFF000000000000000000000
FFFFF000000000000000000000
FFFFF000000000000000000000
FFFFE000000000000000000000
FFFFE000000000000000000000
FFFFE000000000000000000000
FFFFE000000000000000000000
FFFFE000000000000000000000
FFFFE000000000000000000000
FFFFF000000000000000000000
FFFFF000000000000000000000
7FFFF000000000000000000000
7FFFF800000000000000000000
7FFFFC00000000000000000000
7FFFFE00000000000000000000
3FFFFF00000000000000000000
3FFFFFE0000000000000000000
3FFFFFFFFFFFFFFFFFFFFFF800
1FFFFFFFFFFFFFFFFFFFFFFE00
1FFFFFFFFFFFFFFFFFFFFFFF00
0FFFFFFFFFFFFFFFFFFFFFFF80
07FFFFFFFFFFFFFFFFFFFFFFC0
07FFFFFFFFFFFFFFFFFFFFFFC0
03FFFFFFFFFFFFFFFFFFFFFFE0
01FFFFFFFFFFFFFFFFFFFFFFE0
00FFFFFFFFFFFFFFFFFFFFFFE0
007FFFFFFFFFFFFFFFFFFFFFE0
003FFFFFFFFFFFFFFFFFFFFFE0
001FFFFFFFFFFFFFFFFFFFFFE0
000FFFFFFFFFFFFFFFFFFFFFC0
0003FFFFFFFFFFFFFFFFFFFFC0
0001FFFFFFFFFFFFFFFFFFFF80
00007FFFFFFFFFFFFFFFFFFF00
00000FFFFFFFFFFFFFFFFFFE00
000000FFFFFFFFFFFFFFFFF800
ENDCHAR
STARTCHAR $0033
ENCODING 51
SWIDTH 890 0
DWIDTH 114 0
BBX 100 95 0 0
BITMAP
00003FFFFFFFFFFFFFE0000000
0003FFFFFFFFFFFFFFFE000000
000FFFFFFFFFFFFFFFFFC00000
003FFFFFFFFFFFFFFFFFE00000
007FFFFFFFFFFFFFFFFFF80000
00FFFFFFFFFFFFFFFFFFFC0000
01FFFFFFFFFFFFFFFFFFFF0000
03FFFFFFFFFFFFFFFFFFFF8000
07FFFFFFFFFFFFFFFFFFFFC000
0FFFFFFFFFFFFFFFFFFFFFC000
1FFFFFFFFFFFFFFFFFFFFFE000
1FFFFFFFFFFFFFFFFFFFFFF000
3FFFFFFFFFFFFFFFFFFFFFF800
3FFFFFFFFFFFFFFFFFFFFFF800
7FFFFFFFFFFFFFFFFFFFFFFC00
7FFFFFFFFFFFFFFFFFFFFFFC00
7FFFFFFFFFFFFFFFFFFFFFFE00
7FFFFFFFFFFFFFFFFFFFFFFE00
FFFFFFFFFFFFFFFFFFFFFFFF00
FFFFF00000000000007FFFFF00
FFFFE00000000000003FFFFF00
FFFFE00000000000000FFFFF00
FFFFE00000000000000FFFFF80
FFFFE000000000000007FFFF80
FFFFE000000000000007FFFF80
FFFFE000000000000003FFFF80
7FFFC000000000000003FFFF80
7FFFC000000000000003FFFF80
3FFF8000000000000003FFFF80
1FFF0000000000000003FFFF80
0FFE0000000000000007FFFF80
01F00000000000000007FFFF80
0000000000000000000FFFFF00
0000000000000000000FFFFF00
0000000000000000001FFFFF00
0000000000000000007FFFFF00
00000000000007FFFFFFFFFE00
0000000000001FFFFFFFFFFE00
0000000000003FFFFFFFFFFE00
0000000000007FFFFFFFFFFC00
000000000000FFFFFFFFFFFC00
000000000000FFFFFFFFFFF800
000000000001FFFFFFFFFFF000
000000000001FFFFFFFFFFF000
000000000001FFFFFFFFFFF000
000000000001FFFFFFFFFFF000
000000000001FFFFFFFFFFF800
000000000001FFFFFFFFFFFC00
000000000001FFFFFFFFFFFE00
000000000000FFFFFFFFFFFF00
000000000000FFFFFFFFFFFF00
0000000000007FFFFFFFFFFF80
0000000000003FFFFFFFFFFF80
0000000000001FFFFFFFFFFFC0
00000000000007FFFFFFFFFFC0
0000000000000000007FFFFFC0
0000000000000000001FFFFFE0
00000000000000000007FFFFE0
00000000000000000003FFFFE0
00000000000000000001FFFFE0
00000000000000000001FFFFF0
00000000000000000000FFFFF0
00000000000000000000FFFFF0
01F000000000000000007FFFF0
07FC00000000000000007FFFF0
1FFE00000000000000007FFFF0
3FFF00000000000000007FFFF0
7FFF80000000000000007FFFF0
7FFFC0000000000000007FFFF0
FFFFC000000000000000FFFFF0
FFFFE000000000000000FFFFF0
FFFFE000000000000000FFFFE0
FFFFE000000000000001FFFFE0
FFFFE000000000000003FFFFE0
FFFFE000000000000007FFFFE0
FFFFF00000000000000FFFFFC0
FFFFF80000000000003FFFFFC0
FFFFFFFFFFFFFFFFFFFFFFFF80
7FFFFFFFFFFFFFFFFFFFFFFF80
7FFFFFFFFFFFFFFFFFFFFFFF00
7FFFFFFFFFFFFFFFFFFFFFFF00
3FFFFFFFFFFFFFFFFFFFFFFE00
3FFFFFFFFFFFFFFFFFFFFFFE00
1FFFFFFFFFFFFFFFFFFFFFFC00
1FFFFFFFFFFFFFFFFFFFFFF800
0FFFFFFFFFFFFFFFFFFFFFF000
07FFFFFFFFFFFFFFFFFFFFE000
03FFFFFFFFFFFFFFFFFFFFC000
01FFFFFFFFFFFFFFFFFFFF8000
00FFFFFFFFFFFFFFFFFFFF0000
007FFFFFFFFFFFFFFFFFFC0000
003FFFFFFFFFFFFFFFFFF00000
000FFFFFFFFFFFFFFFFFC00000
0003FFFFFFFFFFFFFFFF000000
00003FFFFFFFFFFFFFF0000000
ENDCHAR
STARTCHAR $0034
ENCODING 52
SWIDTH 890 0
DWIDTH 114 0
BBX 103 99 0 -2
BITMAP
03F00000000000000000003F00
0FFC000000000000000000FFC0
1FFF000000000000000001FFF0
3FFF800000000000000003FFF8
7FFF800000000000000007FFF8
7FFFC00000000000000007FFFC
FFFFC0000000000000000FFFFC
FFFFE0000000000000000FFFFE
FFFFE0000000000000000FFFFE
FFFFE0000000000000000FFFFE
FFFFE0000000000000000FFFFE
FFFFE0000000000000000FFFFE
FFFFE0000000000000000FFFFE
FFFFE0000000000000000FFFFE
FFFFE0000000000000000FFFFE
FFFFE0000000000000000FFFFE
FFFFE0000000000000000FFFFE
FFFFE0000000000000000FFFFE
FFFFE0000000000000000FFFFE
FFFFE0000000000000000FFFFE
FFFFE0000000000000000FFFFE
FFFFE0000000000000000FFFFE
FFFFE0000000000000000FFFFE
FFFFE0000000000000000FFFFE
FFFFE0000000000000000FFFFE
FFFFE0000000000000000FFFFE
FFFFE0000000000000000FFFFE
FFFFE0000000000000000FFFFE
FFFFE0000000000000000FFFFE
FFFFE0000000000000000FFFFE
FFFFE0000000000000000FFFFE
FFFFE0000000000000000FFFFE
FFFFE0000000000000000FFFFE
FFFFE0000000000000000FFFFE
FFFFE0000000000000000FFFFE
FFFFE0000000000000000FFFFE
FFFFE0000000000000000FFFFE
FFFFE0000000000000000FFFFE
FFFFE0000000000000000FFFFE
FFFFE0000000000000000FFFFE
FFFFE0000000000000000FFFFE
FFFFE0000000000000000FFFFE
FFFFE0000000000000000FFFFE
FFFFE0000000000000000FFFFE
FFFFE0000000000000000FFFFE
FFFFE0000000000000000FFFFE
FFFFE0000000000000000FFFFE
FFFFF0000000000000000FFFFE
FFFFF0000000000000000FFFFE
FFFFF8000000000000000FFFFE
7FFFFC000000000000000FFFFE
7FFFFE000000000000000FFFFE
7FFFFF000000000000000FFFFE
7FFFFFC00000000000000FFFFE
3FFFFFFFFFFFFFFFFFFFFFFFFE
3FFFFFFFFFFFFFFFFFFFFFFFFE
1FFFFFFFFFFFFFFFFFFFFFFFFE
1FFFFFFFFFFFFFFFFFFFFFFFFE
0FFFFFFFFFFFFFFFFFFFFFFFFE
0FFFFFFFFFFFFFFFFFFFFFFFFE
07FFFFFFFFFFFFFFFFFFFFFFFE
03FFFFFFFFFFFFFFFFFFFFFFFE
01FFFFFFFFFFFFFFFFFFFFFFFE
01FFFFFFFFFFFFFFFFFFFFFFFE
00FFFFFFFFFFFFFFFFFFFFFFFE
007FFFFFFFFFFFFFFFFFFFFFFE
003FFFFFFFFFFFFFFFFFFFFFFE
000FFFFFFFFFFFFFFFFFFFFFFE
0007FFFFFFFFFFFFFFFFFFFFFE
0003FFFFFFFFFFFFFFFFFFFFFE
0000FFFFFFFFFFFFFFFFFFFFFE
00003FFFFFFFFFFFFFFFFFFFFE
000007FFFFFFFFFFFFFFFFFFFE
0000007FFFFFFFFFFFFFFFFFFE
000000000000000000000FFFFE
000000000000000000000FFFFE
000000000000000000000FFFFE
000000000000000000000FFFFE
000000000000000000000FFFFE
000000000000000000000FFFFE
000000000000000000000FFFFE
000000000000000000000FFFFE
000000000000000000000FFFFE
000000000000000000000FFFFE
000000000000000000000FFFFE
000000000000000000000FFFFE
000000000000000000000FFFFE
000000000000000000000FFFFE
000000000000000000000FFFFE
000000000000000000000FFFFE
000000000000000000000FFFFE
000000000000000000000FFFFE
000000000000000000000FFFFC
0000000000000000000007FFFC
0000000000000000000007FFF8
0000000000000000000003FFF8
0000000000000000000001FFF0
0000000000000000000000FFC0
00000000000000000000003F00
ENDCHAR
STARTCHAR $0035
ENCODING 53
SWIDTH 890 0
DWIDTH 114 0
BBX 100 95 0 0
BITMAP
000003FFFFFFFFFFFFFFFFF800
00003FFFFFFFFFFFFFFFFFFE00
0000FFFFFFFFFFFFFFFFFFFF00
0003FFFFFFFFFFFFFFFFFFFF80
000FFFFFFFFFFFFFFFFFFFFFC0
001FFFFFFFFFFFFFFFFFFFFFC0
003FFFFFFFFFFFFFFFFFFFFFE0
00FFFFFFFFFFFFFFFFFFFFFFE0
01FFFFFFFFFFFFFFFFFFFFFFE0
01FFFFFFFFFFFFFFFFFFFFFFE0
03FFFFFFFFFFFFFFFFFFFFFFE0
07FFFFFFFFFFFFFFFFFFFFFFE0
0FFFFFFFFFFFFFFFFFFFFFFFE0
0FFFFFFFFFFFFFFFFFFFFFFFC0
1FFFFFFFFFFFFFFFFFFFFFFFC0
1FFFFFFFFFFFFFFFFFFFFFFF80
3FFFFFFFFFFFFFFFFFFFFFFF00
3FFFFFFFFFFFFFFFFFFFFFFE00
7FFFFFFFFFFFFFFFFFFFFFF800
7FFFFF00000000000000000000
7FFFFC00000000000000000000
FFFFF800000000000000000000
FFFFF000000000000000000000
FFFFF000000000000000000000
FFFFE000000000000000000000
FFFFE000000000000000000000
FFFFE000000000000000000000
FFFFE000000000000000000000
FFFFE000000000000000000000
FFFFE000000000000000000000
FFFFE000000000000000000000
FFFFF000000000000000000000
FFFFF000000000000000000000
FFFFF800000000000000000000
7FFFFC00000000000000000000
7FFFFF00000000000000000000
7FFFFFFFFFFFFFFFFFF0000000
3FFFFFFFFFFFFFFFFFFF000000
3FFFFFFFFFFFFFFFFFFFC00000
3FFFFFFFFFFFFFFFFFFFF00000
1FFFFFFFFFFFFFFFFFFFFC0000
1FFFFFFFFFFFFFFFFFFFFE0000
0FFFFFFFFFFFFFFFFFFFFF8000
07FFFFFFFFFFFFFFFFFFFFC000
07FFFFFFFFFFFFFFFFFFFFE000
03FFFFFFFFFFFFFFFFFFFFF000
01FFFFFFFFFFFFFFFFFFFFF800
00FFFFFFFFFFFFFFFFFFFFFC00
007FFFFFFFFFFFFFFFFFFFFC00
001FFFFFFFFFFFFFFFFFFFFE00
000FFFFFFFFFFFFFFFFFFFFF00
0007FFFFFFFFFFFFFFFFFFFF00
0001FFFFFFFFFFFFFFFFFFFF80
00003FFFFFFFFFFFFFFFFFFF80
000007FFFFFFFFFFFFFFFFFFC0
0000000000000000007FFFFFC0
0000000000000000001FFFFFE0
00000000000000000007FFFFE0
00000000000000000003FFFFE0
00000000000000000001FFFFE0
00000000000000000001FFFFE0
00000000000000000000FFFFF0
00000000000000000000FFFFF0
01E000000000000000007FFFF0
07FC00000000000000007FFFF0
1FFE00000000000000007FFFF0
3FFF00000000000000007FFFF0
7FFF80000000000000007FFFF0
7FFFC0000000000000007FFFF0
FFFFC000000000000000FFFFF0
FFFFE000000000000000FFFFE0
FFFFE000000000000001FFFFE0
FFFFE000000000000001FFFFE0
FFFFE000000000000003FFFFE0
FFFFE000000000000007FFFFE0
FFFFE00000000000000FFFFFC0
FFFFF00000000000007FFFFFC0
FFFFFFFFFFFFFFFFFFFFFFFF80
7FFFFFFFFFFFFFFFFFFFFFFF80
7FFFFFFFFFFFFFFFFFFFFFFF00
7FFFFFFFFFFFFFFFFFFFFFFF00
3FFFFFFFFFFFFFFFFFFFFFFE00
3FFFFFFFFFFFFFFFFFFFFFFC00
1FFFFFFFFFFFFFFFFFFFFFFC00
1FFFFFFFFFFFFFFFFFFFFFF800
0FFFFFFFFFFFFFFFFFFFFFF000
07FFFFFFFFFFFFFFFFFFFFE000
03FFFFFFFFFFFFFFFFFFFFC000
01FFFFFFFFFFFFFFFFFFFF8000
00FFFFFFFFFFFFFFFFFFFE0000
007FFFFFFFFFFFFFFFFFFC0000
003FFFFFFFFFFFFFFFFFF00000
000FFFFFFFFFFFFFFFFFC00000
0003FFFFFFFFFFFFFFFF000000
00007FFFFFFFFFFFFFF0000000
ENDCHAR
STARTCHAR $0036
ENCODING 54
SWIDTH 890 0
DWIDTH 114 0
BBX 100 96 0 -1
BITMAP
000000FFFFFFFFFFFFFFC00000
00000FFFFFFFFFFFFFFFFC0000
00003FFFFFFFFFFFFFFFFF0000
0000FFFFFFFFFFFFFFFFFFC000
0003FFFFFFFFFFFFFFFFFFE000
0007FFFFFFFFFFFFFFFFFFF000
001FFFFFFFFFFFFFFFFFFFF800
003FFFFFFFFFFFFFFFFFFFFC00
007FFFFFFFFFFFFFFFFFFFFE00
00FFFFFFFFFFFFFFFFFFFFFF00
01FFFFFFFFFFFFFFFFFFFFFF80
03FFFFFFFFFFFFFFFFFFFFFF80
03FFFFFFFFFFFFFFFFFFFFFFC0
07FFFFFFFFFFFFFFFFFFFFFFC0
0FFFFFFFFFFFFFFFFFFFFFFFE0
0FFFFFFFFFFFFFFFFFFFFFFFE0
1FFFFFFFFFFFFFFFFFFFFFFFE0
1FFFFFFFFFFFFFFFFFFFFFFFE0
3FFFFFFFFFFFFFFFFFFFFFFFF0
3FFFFFE0000000000001FFFFF0
7FFFFF00000000000000FFFFF0
7FFFFE000000000000007FFFF0
7FFFFC000000000000007FFFF0
7FFFF8000000000000007FFFF0
FFFFF0000000000000007FFFF0
FFFFF0000000000000007FFFF0
FFFFF0000000000000003FFFE0
FFFFE0000000000000003FFFE0
FFFFE0000000000000001FFFC0
FFFFE0000000000000000FFF80
FFFFE00000000000000007FF00
FFFFE00000000000000001FC00
FFFFE000000000000000000000
FFFFE000000000000000000000
FFFFE000000000000000000000
FFFFE000000000000000000000
FFFFFFFFFFFFFFFFFFF0000000
FFFFFFFFFFFFFFFFFFFF000000
FFFFFFFFFFFFFFFFFFFFC00000
FFFFFFFFFFFFFFFFFFFFF00000
FFFFFFFFFFFFFFFFFFFFFC0000
FFFFFFFFFFFFFFFFFFFFFE0000
FFFFFFFFFFFFFFFFFFFFFF8000
FFFFFFFFFFFFFFFFFFFFFFC000
FFFFFFFFFFFFFFFFFFFFFFE000
FFFFFFFFFFFFFFFFFFFFFFF000
FFFFFFFFFFFFFFFFFFFFFFF800
FFFFFFFFFFFFFFFFFFFFFFFC00
FFFFFFFFFFFFFFFFFFFFFFFC00
FFFFFFFFFFFFFFFFFFFFFFFE00
FFFFFFFFFFFFFFFFFFFFFFFF00
FFFFFFFFFFFFFFFFFFFFFFFF00
FFFFFFFFFFFFFFFFFFFFFFFF80
FFFFFFFFFFFFFFFFFFFFFFFF80
FFFFFFFFFFFFFFFFFFFFFFFFC0
FFFFE00000000000007FFFFFC0
FFFFE00000000000000FFFFFE0
FFFFE000000000000007FFFFE0
FFFFE000000000000003FFFFE0
FFFFE000000000000001FFFFE0
FFFFE000000000000000FFFFF0
FFFFE000000000000000FFFFF0
FFFFE000000000000000FFFFF0
FFFFE0000000000000007FFFF0
FFFFE0000000000000007FFFF0
FFFFE0000000000000007FFFF0
FFFFE0000000000000007FFFF0
FFFFE0000000000000007FFFF0
FFFFE0000000000000007FFFF0
FFFFE000000000000000FFFFF0
FFFFF000000000000000FFFFF0
FFFFF000000000000000FFFFF0
7FFFF800000000000001FFFFE0
7FFFFC00000000000003FFFFE0
7FFFFE00000000000007FFFFE0
7FFFFF0000000000000FFFFFE0
3FFFFFE000000000007FFFFFC0
3FFFFFFFFFFFFFFFFFFFFFFFC0
1FFFFFFFFFFFFFFFFFFFFFFF80
1FFFFFFFFFFFFFFFFFFFFFFF80
0FFFFFFFFFFFFFFFFFFFFFFF00
0FFFFFFFFFFFFFFFFFFFFFFF00
07FFFFFFFFFFFFFFFFFFFFFE00
07FFFFFFFFFFFFFFFFFFFFFE00
03FFFFFFFFFFFFFFFFFFFFFC00
01FFFFFFFFFFFFFFFFFFFFF800
00FFFFFFFFFFFFFFFFFFFFF000
007FFFFFFFFFFFFFFFFFFFE000
003FFFFFFFFFFFFFFFFFFFC000
001FFFFFFFFFFFFFFFFFFF8000
000FFFFFFFFFFFFFFFFFFF0000
0003FFFFFFFFFFFFFFFFFC0000
0000FFFFFFFFFFFFFFFFF80000
00003FFFFFFFFFFFFFFFE00000
00000FFFFFFFFFFFFFFF000000
000000FFFFFFFFFFFFF0000000
ENDCHAR
STARTCHAR $0037
ENCODING 55
SWIDTH 890 0
DWIDTH 114 0
BBX 102 97 0 -2
BITMAP
00003FFFFFFFFFFFFFF8000000
0003FFFFFFFFFFFFFFFF800000
000FFFFFFFFFFFFFFFFFF00000
003FFFFFFFFFFFFFFFFFFC0000
007FFFFFFFFFFFFFFFFFFF0000
00FFFFFFFFFFFFFFFFFFFF8000
01FFFFFFFFFFFFFFFFFFFFC000
03FFFFFFFFFFFFFFFFFFFFF000
07FFFFFFFFFFFFFFFFFFFFF800
0FFFFFFFFFFFFFFFFFFFFFFC00
1FFFFFFFFFFFFFFFFFFFFFFE00
1FFFFFFFFFFFFFFFFFFFFFFE00
3FFFFFFFFFFFFFFFFFFFFFFF00
3FFFFFFFFFFFFFFFFFFFFFFF80
7FFFFFFFFFFFFFFFFFFFFFFF80
7FFFFFFFFFFFFFFFFFFFFFFFC0
7FFFFFFFFFFFFFFFFFFFFFFFE0
FFFFFFFFFFFFFFFFFFFFFFFFE0
FFFFFFFFFFFFFFFFFFFFFFFFF0
FFFFF00000000000001FFFFFF0
FFFFE000000000000007FFFFF0
FFFFE000000000000001FFFFF8
FFFFE000000000000000FFFFF8
FFFFE0000000000000007FFFF8
FFFFE0000000000000007FFFF8
FFFFC0000000000000003FFFFC
7FFFC0000000000000003FFFFC
7FFFC0000000000000003FFFFC
3FFF80000000000000001FFFFC
1FFF00000000000000001FFFFC
0FFE00000000000000001FFFFC
03F800000000000000001FFFFC
000000000000000000001FFFFC
000000000000000000003FFFFC
000000000000000000003FFFFC
000000000000000000003FFFF8
000000000000000000007FFFF8
00000000000000000000FFFFF8
00000000000000000001FFFFF8
00000000000000000001FFFFF0
00000000000000000003FFFFF0
00000000000000000007FFFFF0
0000000000000000000FFFFFE0
0000000000000000001FFFFFE0
0000000000000000003FFFFFC0
0000000000000000003FFFFFC0
0000000000000000007FFFFF80
000000000000000000FFFFFF00
000000000000000001FFFFFF00
000000000000000003FFFFFE00
000000000000000007FFFFFC00
000000000000000007FFFFF800
00000000000000000FFFFFF800
00000000000000001FFFFFF000
00000000000000003FFFFFE000
00000000000000007FFFFFC000
0000000000000000FFFFFF8000
0000000000000000FFFFFF0000
0000000000000001FFFFFF0000
0000000000000003FFFFFE0000
0000000000000007FFFFFC0000
000000000000000FFFFFF80000
000000000000001FFFFFF00000
000000000000003FFFFFE00000
000000000000003FFFFFC00000
000000000000007FFFFFC00000
00000000000000FFFFFF800000
00000000000001FFFFFF000000
00000000000003FFFFFE000000
00000000000007FFFFFC000000
00000000000007FFFFF8000000
0000000000000FFFFFF8000000
0000000000001FFFFFF0000000
0000000000003FFFFFE0000000
0000000000007FFFFFC0000000
000000000000FFFFFF80000000
000000000000FFFFFF00000000
000000000001FFFFFF00000000
000000000003FFFFFE00000000
000000000007FFFFFC00000000
00000000000FFFFFF800000000
00000000001FFFFFF000000000
00000000001FFFFFE000000000
00000000003FFFFFE000000000
00000000003FFFFFC000000000
00000000007FFFFF8000000000
00000000007FFFFF0000000000
00000000007FFFFE0000000000
00000000007FFFFC0000000000
00000000003FFFFC0000000000
00000000003FFFF80000000000
00000000003FFFF00000000000
00000000001FFFE00000000000
00000000001FFFC00000000000
00000000000FFF800000000000
000000000003FF000000000000
000000000000FC000000000000
ENDCHAR
STARTCHAR $0038
ENCODING 56
SWIDTH 890 0
DWIDTH 114 0
BBX 100 95 0 0
BITMAP
000000FFFFFFFFFFFFF0000000
000007FFFFFFFFFFFFFE000000
00003FFFFFFFFFFFFFFFC00000
00007FFFFFFFFFFFFFFFE00000
0001FFFFFFFFFFFFFFFFF80000
0003FFFFFFFFFFFFFFFFFC0000
000FFFFFFFFFFFFFFFFFFF0000
001FFFFFFFFFFFFFFFFFFF8000
003FFFFFFFFFFFFFFFFFFFC000
007FFFFFFFFFFFFFFFFFFFC000
007FFFFFFFFFFFFFFFFFFFE000
00FFFFFFFFFFFFFFFFFFFFF000
01FFFFFFFFFFFFFFFFFFFFF800
01FFFFFFFFFFFFFFFFFFFFF800
03FFFFFFFFFFFFFFFFFFFFFC00
03FFFFFFFFFFFFFFFFFFFFFC00
07FFFFFFFFFFFFFFFFFFFFFE00
07FFFFFFFFFFFFFFFFFFFFFE00
0FFFFFFFFFFFFFFFFFFFFFFF00
0FFFFFE000000000007FFFFF00
0FFFFFC000000000003FFFFF00
0FFFFF0000000000000FFFFF00
1FFFFF0000000000000FFFFF80
1FFFFE00000000000007FFFF80
1FFFFC00000000000007FFFF80
1FFFFC00000000000003FFFF80
1FFFFC00000000000003FFFF80
1FFFFC00000000000003FFFF80
1FFFFC00000000000003FFFF80
1FFFFC00000000000003FFFF80
1FFFFC00000000000007FFFF80
1FFFFE00000000000007FFFF80
1FFFFF0000000000000FFFFF00
0FFFFF0000000000000FFFFF00
0FFFFF8000000000001FFFFF00
0FFFFFE000000000007FFFFF00
07FFFFFFFFFFFFFFFFFFFFFE00
07FFFFFFFFFFFFFFFFFFFFFE00
07FFFFFFFFFFFFFFFFFFFFFE00
03FFFFFFFFFFFFFFFFFFFFFC00
03FFFFFFFFFFFFFFFFFFFFFC00
01FFFFFFFFFFFFFFFFFFFFF800
01FFFFFFFFFFFFFFFFFFFFF000
00FFFFFFFFFFFFFFFFFFFFF000
00FFFFFFFFFFFFFFFFFFFFF000
01FFFFFFFFFFFFFFFFFFFFF000
01FFFFFFFFFFFFFFFFFFFFF800
03FFFFFFFFFFFFFFFFFFFFFC00
07FFFFFFFFFFFFFFFFFFFFFE00
0FFFFFFFFFFFFFFFFFFFFFFF00
0FFFFFFFFFFFFFFFFFFFFFFF00
1FFFFFFFFFFFFFFFFFFFFFFF80
1FFFFFFFFFFFFFFFFFFFFFFF80
3FFFFFFFFFFFFFFFFFFFFFFFC0
3FFFFFFFFFFFFFFFFFFFFFFFC0
3FFFFFE000000000007FFFFFC0
7FFFFF0000000000001FFFFFE0
7FFFFE00000000000007FFFFE0
7FFFFC00000000000003FFFFE0
7FFFF800000000000001FFFFE0
FFFFF000000000000001FFFFF0
FFFFF000000000000000FFFFF0
FFFFF000000000000000FFFFF0
FFFFE0000000000000007FFFF0
FFFFE0000000000000007FFFF0
FFFFE0000000000000007FFFF0
FFFFE0000000000000007FFFF0
FFFFE0000000000000007FFFF0
FFFFE0000000000000007FFFF0
FFFFE000000000000000FFFFF0
FFFFF000000000000000FFFFF0
7FFFF000000000000000FFFFE0
7FFFF800000000000001FFFFE0
7FFFFC00000000000003FFFFE0
7FFFFE00000000000007FFFFE0
3FFFFF0000000000000FFFFFC0
3FFFFFE000000000003FFFFFC0
1FFFFFFFFFFFFFFFFFFFFFFF80
1FFFFFFFFFFFFFFFFFFFFFFF80
0FFFFFFFFFFFFFFFFFFFFFFF00
0FFFFFFFFFFFFFFFFFFFFFFF00
07FFFFFFFFFFFFFFFFFFFFFE00
07FFFFFFFFFFFFFFFFFFFFFE00
03FFFFFFFFFFFFFFFFFFFFFC00
01FFFFFFFFFFFFFFFFFFFFF800
00FFFFFFFFFFFFFFFFFFFFF000
007FFFFFFFFFFFFFFFFFFFE000
003FFFFFFFFFFFFFFFFFFFC000
001FFFFFFFFFFFFFFFFFFF8000
000FFFFFFFFFFFFFFFFFFF0000
0003FFFFFFFFFFFFFFFFFC0000
0000FFFFFFFFFFFFFFFFF00000
00007FFFFFFFFFFFFFFFC00000
00000FFFFFFFFFFFFFFF000000
000000FFFFFFFFFFFFF0000000
ENDCHAR
STARTCHAR $0039
ENCODING 57
SWIDTH 890 0
DWIDTH 114 0
BBX 100 96 0 0
BITMAP
000000FFFFFFFFFFFFF0000000
00000FFFFFFFFFFFFFFF000000
00003FFFFFFFFFFFFFFFC00000
0000FFFFFFFFFFFFFFFFF00000
0003FFFFFFFFFFFFFFFFFC0000
000FFFFFFFFFFFFFFFFFFF0000
001FFFFFFFFFFFFFFFFFFF8000
003FFFFFFFFFFFFFFFFFFFC000
007FFFFFFFFFFFFFFFFFFFE000
00FFFFFFFFFFFFFFFFFFFFF000
01FFFFFFFFFFFFFFFFFFFFF800
03FFFFFFFFFFFFFFFFFFFFFC00
07FFFFFFFFFFFFFFFFFFFFFC00
07FFFFFFFFFFFFFFFFFFFFFE00
0FFFFFFFFFFFFFFFFFFFFFFF00
0FFFFFFFFFFFFFFFFFFFFFFF00
1FFFFFFFFFFFFFFFFFFFFFFF80
1FFFFFFFFFFFFFFFFFFFFFFF80
3FFFFFFFFFFFFFFFFFFFFFFFC0
3FFFFFE000000000007FFFFFC0
7FFFFF0000000000001FFFFFE0
7FFFFE00000000000007FFFFE0
7FFFFC00000000000003FFFFE0
7FFFF800000000000001FFFFE0
FFFFF000000000000001FFFFF0
FFFFF000000000000000FFFFF0
FFFFF000000000000000FFFFF0
FFFFE0000000000000007FFFF0
FFFFE0000000000000007FFFF0
FFFFE0000000000000007FFFF0
FFFFE0000000000000007FFFF0
FFFFE0000000000000007FFFF0
FFFFE0000000000000007FFFF0
FFFFE0000000000000007FFFF0
FFFFF0000000000000007FFFF0
FFFFF0000000000000007FFFF0
7FFFF8000000000000007FFFF0
7FFFFC000000000000007FFFF0
7FFFFE000000000000007FFFF0
7FFFFF000000000000007FFFF0
3FFFFFE00000000000007FFFF0
3FFFFFFFFFFFFFFFFFFFFFFFF0
1FFFFFFFFFFFFFFFFFFFFFFFF0
1FFFFFFFFFFFFFFFFFFFFFFFF0
0FFFFFFFFFFFFFFFFFFFFFFFF0
0FFFFFFFFFFFFFFFFFFFFFFFF0
07FFFFFFFFFFFFFFFFFFFFFFF0
07FFFFFFFFFFFFFFFFFFFFFFF0
03FFFFFFFFFFFFFFFFFFFFFFF0
01FFFFFFFFFFFFFFFFFFFFFFF0
00FFFFFFFFFFFFFFFFFFFFFFF0
007FFFFFFFFFFFFFFFFFFFFFF0
003FFFFFFFFFFFFFFFFFFFFFF0
001FFFFFFFFFFFFFFFFFFFFFF0
000FFFFFFFFFFFFFFFFFFFFFF0
0003FFFFFFFFFFFFFFFFFFFFF0
0000FFFFFFFFFFFFFFFFFFFFF0
00007FFFFFFFFFFFFFFFFFFFF0
00000FFFFFFFFFFFFFFFFFFFF0
000000FFFFFFFFFFFFFFFFFFF0
000000000000000000007FFFF0
000000000000000000007FFFF0
000000000000000000007FFFF0
01F000000000000000007FFFF0
07FC00000000000000007FFFF0
1FFF00000000000000007FFFF0
3FFF80000000000000007FFFF0
3FFF80000000000000007FFFF0
7FFFC0000000000000007FFFF0
7FFFC000000000000000FFFFF0
FFFFE000000000000000FFFFF0
FFFFE000000000000000FFFFF0
FFFFE000000000000001FFFFE0
FFFFE000000000000003FFFFE0
FFFFE000000000000007FFFFE0
FFFFF00000000000000FFFFFE0
FFFFF00000000000007FFFFFC0
FFFFFFFFFFFFFFFFFFFFFFFFC0
7FFFFFFFFFFFFFFFFFFFFFFF80
7FFFFFFFFFFFFFFFFFFFFFFF80
7FFFFFFFFFFFFFFFFFFFFFFF00
7FFFFFFFFFFFFFFFFFFFFFFF00
3FFFFFFFFFFFFFFFFFFFFFFE00
3FFFFFFFFFFFFFFFFFFFFFFC00
1FFFFFFFFFFFFFFFFFFFFFFC00
0FFFFFFFFFFFFFFFFFFFFFF800
0FFFFFFFFFFFFFFFFFFFFFF000
07FFFFFFFFFFFFFFFFFFFFE000
03FFFFFFFFFFFFFFFFFFFFC000
01FFFFFFFFFFFFFFFFFFFF8000
00FFFFFFFFFFFFFFFFFFFE0000
007FFFFFFFFFFFFFFFFFFC0000
003FFFFFFFFFFFFFFFFFF00000
000FFFFFFFFFFFFFFFFFC00000
0003FFFFFFFFFFFFFFFF000000
00003FFFFFFFFFFFFFF0000000
ENDCHAR
STARTCHAR $0040
ENCODING 64
SWIDTH 890 0
DWIDTH 114 0
BBX 100 96 0 -1
BITMAP
000000FFFFFFFFFFFFF0000000
00000FFFFFFFFFFFFFFF000000
00003FFFFFFFFFFFFFFFC00000
0000FFFFFFFFFFFFFFFFF00000
0003FFFFFFFFFFFFFFFFFC0000
0007FFFFFFFFFFFFFFFFFE0000
001FFFFFFFFFFFFFFFFFFF8000
003FFFFFFFFFFFFFFFFFFFC000
007FFFFFFFFFFFFFFFFFFFE000
00FFFFFFFFFFFFFFFFFFFFF000
01FFFFFFFFFFFFFFFFFFFFF800
03FFFF8000000000001FFFFC00
03FFFC00000000000003FFFC00
07FFF000000000000000FFFE00
0FFFC0000000000000003FFF00
0FFF80000000000000001FFF00
1FFF00000000000000000FFF80
1FFE000000000000000007FF80
3FFC000000000000000003FFC0
3FF8000000000000000003FFC0
7FF8000000000000000001FFE0
7FF0000000FFFFF0000000FFE0
7FF0000007FFFFFE000000FFE0
7FE000001FFFFFFF8000007FE0
FFE000003FFFFFFFC000007FF0
FFE00000FFFFFFFFF000007FF0
FFC00001FFFFFFFFF800003FF0
FFC00001FFFFFFFFFC00003FF0
FFC00003FFFFFFFFFC00003FF0
FFC00007FFFFFFFFFE00003FF0
FFC00007FFFFFFFFFE00003FF0
FFC0000FFFFFFFFFFF00003FF0
FFC0000FFFFFFFFFFF00003FF0
FFC0001FFFC0001FFF80003FF0
FFC0001FFF00000FFF80003FF0
FFC0001FFF000007FF80003FF0
FFC0001FFE000007FF80003FF0
FFC0001FFE000007FFC0003FF0
FFC0003FFE000003FFC0003FF0
FFC0003FFC000003FFC0003FF0
FFC0003FFC000003FFC0003FF0
FFC0003FFC000003FFC0003FF0
FFC0007FFC000003FFE0003FF0
FFC0007FF8000001FFE0003FF0
FFC0007FF8000001FFE0003FF0
FFC0007FF8000001FFE0003FF0
FFC0007FF8000001FFF0003FF0
FFC000FFFFFFFFFFFFF0003FF0
FFC000FFFFFFFFFFFFF0003FF0
FFC000FFFFFFFFFFFFF0003FF0
FFC000FFFFFFFFFFFFF0003FF0
FFC001FFFFFFFFFFFFF8003FF0
FFC001FFFFFFFFFFFFF8003FF0
FFC001FFFFFFFFFFFFF8003FF0
FFC001FFFFFFFFFFFFF8003FF0
FFC001FFFFFFFFFFFFFC003FF0
FFC003FFFFFFFFFFFFFC003FF0
FFC003FFFFFFFFFFFFFC003FF0
FFC003FFFFFFFFFFFFFC003FF0
FFC003FFC00000003FFC003FF0
FFC007FFC00000003FFE003FF0
FFC007FF800000001FFE003FF0
FFC007FF800000001FFE003FF0
FFC007FF800000001FFE003FF0
FFC007FF800000001FFE003FF0
FFC00FFF000000000FFF003FF0
FFC00FFF000000000FFF003FF0
FFC00FFF000000000FFF003FF0
FFC00FFF000000000FFF003FF0
FFC00FFF000000000FFF003FF0
FFC00FFE0000000007FF003FF0
FFE007FE0000000007FF007FF0
7FE003FC0000000003FE007FE0
7FE001F00000000001FC007FE0
7FF0000000000000002000FFE0
7FF0000000000000000000FFE0
3FF8000000000000000001FFC0
3FF8000000000000000001FFC0
1FFC000000000000000003FF80
1FFE000000000000000007FF80
0FFF00000000000000000FFF00
0FFF80000000000000001FFF00
07FFC0000000000000003FFE00
07FFF000000000000000FFFC00
03FFFC00000000000003FFFC00
01FFFF8000000000001FFFF800
00FFFFFFFFFFFFFFFFFFFFF000
007FFFFFFFFFFFFFFFFFFFE000
003FFFFFFFFFFFFFFFFFFFC000
001FFFFFFFFFFFFFFFFFFF8000
000FFFFFFFFFFFFFFFFFFE0000
0003FFFFFFFFFFFFFFFFFC0000
0000FFFFFFFFFFFFFFFFF00000
00003FFFFFFFFFFFFFFFC00000
00000FFFFFFFFFFFFFFF000000
000000FFFFFFFFFFFFF0000000
ENDCHAR
STARTCHAR $0041
ENCODING 65
SWIDTH 890 0
DWIDTH 114 0
BBX 109 97 0 -2
BITMAP
0000000003FFFFFFFE0000000000
000000003FFFFFFFFFE000000000
00000001FFFFFFFFFFFC00000000
00000007FFFFFFFFFFFF00000000
0000000FFFFFFFFFFFFF80000000
0000003FFFFFFFFFFFFFE0000000
0000007FFFFFFFFFFFFFF0000000
000000FFFFFFFFFFFFFFF8000000
000003FFFFFFFFFFFFFFFC000000
000007FFFFFFFFFFFFFFFE000000
000007FFFFFFFFFFFFFFFF000000
00000FFFFFFFFFFFFFFFFF800000
00001FFFFFFFFFFFFFFFFFC00000
00003FFFFFFFFFFFFFFFFFE00000
00003FFFFFFFFFFFFFFFFFE00000
00007FFFFFFFFFFFFFFFFFF00000
0000FFFFFFFFFFFFFFFFFFF00000
0000FFFFFFFFFFFFFFFFFFF80000
0001FFFFFFFFFFFFFFFFFFF80000
0001FFFFFF00000007FFFFFC0000
0001FFFFFC00000001FFFFFC0000
0003FFFFF000000000FFFFFE0000
0003FFFFE0000000003FFFFE0000
0003FFFFC0000000003FFFFE0000
0003FFFFC0000000001FFFFE0000
0007FFFF80000000000FFFFF0000
0007FFFF80000000000FFFFF0000
0007FFFF80000000000FFFFF0000
0007FFFF000000000007FFFF0000
0007FFFF000000000007FFFF0000
000FFFFF000000000007FFFF8000
000FFFFF000000000007FFFF8000
000FFFFE000000000003FFFF8000
000FFFFE000000000003FFFF8000
001FFFFE000000000003FFFFC000
001FFFFE000000000003FFFFC000
001FFFFE000000000003FFFFC000
001FFFFC000000000001FFFFC000
001FFFFC000000000001FFFFC000
003FFFFC000000000001FFFFE000
003FFFFC000000000001FFFFE000
003FFFF8000000000001FFFFE000
003FFFF8000000000000FFFFE000
007FFFF8000000000000FFFFF000
007FFFF8000000000000FFFFF000
007FFFF8000000000000FFFFF000
007FFFF00000000000007FFFF000
007FFFF00000000000007FFFF000
00FFFFF00000000000007FFFF800
00FFFFFFFFFFFFFFFFFFFFFFF800
00FFFFFFFFFFFFFFFFFFFFFFF800
00FFFFFFFFFFFFFFFFFFFFFFF800
01FFFFFFFFFFFFFFFFFFFFFFFC00
01FFFFFFFFFFFFFFFFFFFFFFFC00
01FFFFFFFFFFFFFFFFFFFFFFFC00
01FFFFFFFFFFFFFFFFFFFFFFFC00
01FFFFFFFFFFFFFFFFFFFFFFFC00
03FFFFFFFFFFFFFFFFFFFFFFFE00
03FFFFFFFFFFFFFFFFFFFFFFFE00
03FFFFFFFFFFFFFFFFFFFFFFFE00
03FFFFFFFFFFFFFFFFFFFFFFFE00
07FFFFFFFFFFFFFFFFFFFFFFFF00
07FFFFFFFFFFFFFFFFFFFFFFFF00
07FFFFFFFFFFFFFFFFFFFFFFFF00
07FFFFFFFFFFFFFFFFFFFFFFFF00
07FFFFFFFFFFFFFFFFFFFFFFFF00
0FFFFFFFFFFFFFFFFFFFFFFFFF80
0FFFFFFFFFFFFFFFFFFFFFFFFF80
0FFFFE0000000000000007FFFF80
0FFFFE0000000000000003FFFF80
1FFFFE0000000000000003FFFFC0
1FFFFE0000000000000003FFFFC0
1FFFFC0000000000000003FFFFC0
1FFFFC0000000000000001FFFFC0
1FFFFC0000000000000001FFFFC0
3FFFFC0000000000000001FFFFE0
3FFFFC0000000000000001FFFFE0
3FFFF80000000000000001FFFFE0
3FFFF80000000000000000FFFFE0
7FFFF80000000000000000FFFFF0
7FFFF80000000000000000FFFFF0
7FFFF00000000000000000FFFFF0
7FFFF000000000000000007FFFF0
7FFFF000000000000000007FFFF0
FFFFF000000000000000007FFFF8
FFFFF000000000000000007FFFF8
FFFFE000000000000000003FFFF8
FFFFE000000000000000003FFFF8
FFFFE000000000000000003FFFF8
FFFFE000000000000000003FFFF8
FFFFC000000000000000003FFFF8
7FFFC000000000000000001FFFF0
7FFF8000000000000000001FFFF0
3FFF8000000000000000000FFFE0
1FFF00000000000000000007FFC0
0FFE00000000000000000003FF80
03F000000000000000000000FE00
ENDCHAR
STARTCHAR $0042
ENCODING 66
SWIDTH 890 0
DWIDTH 114 0
BBX 100 96 0 -1
BITMAP
00007FFFFFFFFFFFFFE0000000
0003FFFFFFFFFFFFFFFE000000
000FFFFFFFFFFFFFFFFF800000
003FFFFFFFFFFFFFFFFFE00000
007FFFFFFFFFFFFFFFFFF80000
00FFFFFFFFFFFFFFFFFFFC0000
01FFFFFFFFFFFFFFFFFFFE0000
03FFFFFFFFFFFFFFFFFFFF8000
07FFFFFFFFFFFFFFFFFFFF8000
0FFFFFFFFFFFFFFFFFFFFFC000
1FFFFFFFFFFFFFFFFFFFFFE000
1FFFFFFFFFFFFFFFFFFFFFF000
3FFFFFFFFFFFFFFFFFFFFFF800
3FFFFFFFFFFFFFFFFFFFFFF800
7FFFFFFFFFFFFFFFFFFFFFFC00
7FFFFFFFFFFFFFFFFFFFFFFC00
7FFFFFFFFFFFFFFFFFFFFFFE00
7FFFFFFFFFFFFFFFFFFFFFFE00
FFFFFFFFFFFFFFFFFFFFFFFF00
FFFFF80000000000007FFFFF00
FFFFF00000000000003FFFFF00
FFFFE00000000000000FFFFF00
FFFFE00000000000000FFFFF80
FFFFE000000000000007FFFF80
FFFFE000000000000007FFFF80
FFFFE000000000000003FFFF80
FFFFE000000000000003FFFF80
FFFFE000000000000003FFFF80
FFFFE000000000000003FFFF80
FFFFE000000000000003FFFF80
FFFFE000000000000007FFFF80
FFFFE000000000000007FFFF80
FFFFE00000000000000FFFFF80
FFFFE00000000000000FFFFF00
FFFFE00000000000003FFFFF00
FFFFE00000000000007FFFFF00
FFFFFFFFFFFFFFFFFFFFFFFF00
FFFFFFFFFFFFFFFFFFFFFFFE00
FFFFFFFFFFFFFFFFFFFFFFFE00
FFFFFFFFFFFFFFFFFFFFFFFC00
FFFFFFFFFFFFFFFFFFFFFFFC00
FFFFFFFFFFFFFFFFFFFFFFF800
FFFFFFFFFFFFFFFFFFFFFFF800
FFFFFFFFFFFFFFFFFFFFFFF000
FFFFFFFFFFFFFFFFFFFFFFE000
FFFFFFFFFFFFFFFFFFFFFFF000
FFFFFFFFFFFFFFFFFFFFFFF800
FFFFFFFFFFFFFFFFFFFFFFFC00
FFFFFFFFFFFFFFFFFFFFFFFE00
FFFFFFFFFFFFFFFFFFFFFFFE00
FFFFFFFFFFFFFFFFFFFFFFFF00
FFFFFFFFFFFFFFFFFFFFFFFF00
FFFFFFFFFFFFFFFFFFFFFFFF80
FFFFFFFFFFFFFFFFFFFFFFFF80
FFFFFFFFFFFFFFFFFFFFFFFFC0
FFFFE00000000000007FFFFFC0
FFFFE00000000000000FFFFFE0
FFFFE000000000000007FFFFE0
FFFFE000000000000003FFFFE0
FFFFE000000000000001FFFFE0
FFFFE000000000000000FFFFF0
FFFFE000000000000000FFFFF0
FFFFE000000000000000FFFFF0
FFFFE0000000000000007FFFF0
FFFFE0000000000000007FFFF0
FFFFE0000000000000007FFFF0
FFFFE0000000000000007FFFF0
FFFFE0000000000000007FFFF0
FFFFE0000000000000007FFFF0
FFFFE000000000000000FFFFF0
FFFFE000000000000000FFFFF0
FFFFE000000000000000FFFFF0
FFFFE000000000000001FFFFE0
FFFFE000000000000003FFFFE0
FFFFE000000000000007FFFFE0
FFFFE00000000000000FFFFFE0
FFFFF00000000000003FFFFFC0
FFFFFFFFFFFFFFFFFFFFFFFFC0
7FFFFFFFFFFFFFFFFFFFFFFF80
7FFFFFFFFFFFFFFFFFFFFFFF80
7FFFFFFFFFFFFFFFFFFFFFFF00
7FFFFFFFFFFFFFFFFFFFFFFF00
3FFFFFFFFFFFFFFFFFFFFFFE00
3FFFFFFFFFFFFFFFFFFFFFFC00
1FFFFFFFFFFFFFFFFFFFFFFC00
1FFFFFFFFFFFFFFFFFFFFFF800
0FFFFFFFFFFFFFFFFFFFFFF000
07FFFFFFFFFFFFFFFFFFFFE000
03FFFFFFFFFFFFFFFFFFFFC000
01FFFFFFFFFFFFFFFFFFFF8000
00FFFFFFFFFFFFFFFFFFFE0000
007FFFFFFFFFFFFFFFFFFC0000
003FFFFFFFFFFFFFFFFFF00000
000FFFFFFFFFFFFFFFFFC00000
0003FFFFFFFFFFFFFFFF000000
00007FFFFFFFFFFFFFF0000000
ENDCHAR
STARTCHAR $0043
ENCODING 67
SWIDTH 890 0
DWIDTH 114 0
BBX 100 96 0 -1
BITMAP
000000FFFFFFFFFFFFFFC00000
00000FFFFFFFFFFFFFFFFC0000
00003FFFFFFFFFFFFFFFFF0000
0000FFFFFFFFFFFFFFFFFFC000
0003FFFFFFFFFFFFFFFFFFE000
0007FFFFFFFFFFFFFFFFFFF000
001FFFFFFFFFFFFFFFFFFFF800
003FFFFFFFFFFFFFFFFFFFFC00
007FFFFFFFFFFFFFFFFFFFFE00
00FFFFFFFFFFFFFFFFFFFFFF00
01FFFFFFFFFFFFFFFFFFFFFF80
03FFFFFFFFFFFFFFFFFFFFFF80
03FFFFFFFFFFFFFFFFFFFFFFC0
07FFFFFFFFFFFFFFFFFFFFFFC0
0FFFFFFFFFFFFFFFFFFFFFFFE0
0FFFFFFFFFFFFFFFFFFFFFFFE0
1FFFFFFFFFFFFFFFFFFFFFFFE0
1FFFFFFFFFFFFFFFFFFFFFFFE0
3FFFFFFFFFFFFFFFFFFFFFFFF0
3FFFFFE0000000000000FFFFF0
7FFFFF00000000000000FFFFF0
7FFFFE000000000000007FFFF0
7FFFFC000000000000007FFFF0
7FFFF8000000000000007FFFF0
FFFFF0000000000000007FFFF0
FFFFF0000000000000007FFFF0
FFFFF0000000000000003FFFE0
FFFFE0000000000000003FFFE0
FFFFE0000000000000001FFFC0
FFFFE0000000000000000FFF80
FFFFE00000000000000007FF00
FFFFE00000000000000001F800
FFFFE000000000000000000000
FFFFE000000000000000000000
FFFFE000000000000000000000
FFFFE000000000000000000000
FFFFE000000000000000000000
FFFFE000000000000000000000
FFFFE000000000000000000000
FFFFE000000000000000000000
FFFFE000000000000000000000
FFFFE000000000000000000000
FFFFE000000000000000000000
FFFFE000000000000000000000
FFFFE000000000000000000000
FFFFE000000000000000000000
FFFFE000000000000000000000
FFFFE000000000000000000000
FFFFE000000000000000000000
FFFFE000000000000000000000
FFFFE000000000000000000000
FFFFE000000000000000000000
FFFFE000000000000000000000
FFFFE000000000000000000000
FFFFE000000000000000000000
FFFFE000000000000000000000
FFFFE000000000000000000000
FFFFE000000000000000000000
FFFFE000000000000000000000
FFFFE000000000000000000000
FFFFE000000000000000000000
FFFFE000000000000000000000
FFFFE000000000000000000000
FFFFE000000000000000007000
FFFFE00000000000000003FE00
FFFFE00000000000000007FF00
FFFFE0000000000000001FFF80
FFFFE0000000000000001FFFC0
FFFFE0000000000000003FFFE0
FFFFF0000000000000003FFFE0
FFFFF0000000000000007FFFF0
FFFFF0000000000000007FFFF0
7FFFF8000000000000007FFFF0
7FFFFC000000000000007FFFF0
7FFFFE000000000000007FFFF0
7FFFFF00000000000000FFFFF0
3FFFFFE0000000000001FFFFF0
3FFFFFFFFFFFFFFFFFFFFFFFF0
1FFFFFFFFFFFFFFFFFFFFFFFE0
1FFFFFFFFFFFFFFFFFFFFFFFE0
0FFFFFFFFFFFFFFFFFFFFFFFE0
0FFFFFFFFFFFFFFFFFFFFFFFC0
07FFFFFFFFFFFFFFFFFFFFFFC0
03FFFFFFFFFFFFFFFFFFFFFFC0
03FFFFFFFFFFFFFFFFFFFFFF80
01FFFFFFFFFFFFFFFFFFFFFF00
00FFFFFFFFFFFFFFFFFFFFFF00
007FFFFFFFFFFFFFFFFFFFFE00
003FFFFFFFFFFFFFFFFFFFFC00
001FFFFFFFFFFFFFFFFFFFF800
000FFFFFFFFFFFFFFFFFFFF000
0003FFFFFFFFFFFFFFFFFFE000
0000FFFFFFFFFFFFFFFFFFC000
00003FFFFFFFFFFFFFFFFF0000
00000FFFFFFFFFFFFFFFFC0000
000000FFFFFFFFFFFFFFE00000
ENDCHAR
STARTCHAR $0044
ENCODING 68
SWIDTH 890 0
DWIDTH 114 0
BBX 100 96 0 -1
BITMAP
00007FFFFFFFFFFFF000000000
0003FFFFFFFFFFFFFF00000000
000FFFFFFFFFFFFFFFC0000000
003FFFFFFFFFFFFFFFF0000000
007FFFFFFFFFFFFFFFFC000000
00FFFFFFFFFFFFFFFFFE000000
01FFFFFFFFFFFFFFFFFF800000
03FFFFFFFFFFFFFFFFFFC00000
07FFFFFFFFFFFFFFFFFFE00000
0FFFFFFFFFFFFFFFFFFFF00000
1FFFFFFFFFFFFFFFFFFFF80000
1FFFFFFFFFFFFFFFFFFFFC0000
3FFFFFFFFFFFFFFFFFFFFC0000
3FFFFFFFFFFFFFFFFFFFFE0000
7FFFFFFFFFFFFFFFFFFFFF0000
7FFFFFFFFFFFFFFFFFFFFF0000
7FFFFFFFFFFFFFFFFFFFFF8000
7FFFFFFFFFFFFFFFFFFFFF8000
FFFFFFFFFFFFFFFFFFFFFFC000
FFFFF000000000003FFFFFC000
FFFFE000000000000FFFFFE000
FFFFE0000000000007FFFFE000
FFFFE0000000000003FFFFE000
FFFFE0000000000001FFFFE000
FFFFE0000000000000FFFFF000
FFFFE0000000000000FFFFF000
FFFFE00000000000007FFFF000
FFFFE00000000000007FFFF000
FFFFE00000000000007FFFF000
FFFFE00000000000007FFFF800
FFFFE00000000000003FFFF800
FFFFE00000000000003FFFF800
FFFFE00000000000003FFFF800
FFFFE00000000000003FFFFC00
FFFFE00000000000001FFFFC00
FFFFE00000000000001FFFFC00
FFFFE00000000000001FFFFC00
FFFFE00000000000001FFFFC00
FFFFE00000000000001FFFFE00
FFFFE00000000000000FFFFE00
FFFFE00000000000000FFFFE00
FFFFE00000000000000FFFFE00
FFFFE00000000000000FFFFF00
FFFFE000000000000007FFFF00
FFFFE000000000000007FFFF00
FFFFE000000000000007FFFF00
FFFFE000000000000007FFFF00
FFFFE000000000000007FFFF80
FFFFE000000000000003FFFF80
FFFFE000000000000003FFFF80
FFFFE000000000000003FFFF80
FFFFE000000000000003FFFFC0
FFFFE000000000000001FFFFC0
FFFFE000000000000001FFFFC0
FFFFE000000000000001FFFFC0
FFFFE000000000000001FFFFC0
FFFFE000000000000001FFFFE0
FFFFE000000000000000FFFFE0
FFFFE000000000000000FFFFE0
FFFFE000000000000000FFFFE0
FFFFE000000000000000FFFFF0
FFFFE0000000000000007FFFF0
FFFFE0000000000000007FFFF0
FFFFE0000000000000007FFFF0
FFFFE0000000000000007FFFF0
FFFFE0000000000000007FFFF0
FFFFE0000000000000007FFFF0
FFFFE0000000000000007FFFF0
FFFFE0000000000000007FFFF0
FFFFE000000000000000FFFFF0
FFFFE000000000000000FFFFF0
FFFFE000000000000000FFFFF0
FFFFE000000000000001FFFFE0
FFFFE000000000000003FFFFE0
FFFFE000000000000007FFFFE0
FFFFE00000000000000FFFFFE0
FFFFF00000000000007FFFFFC0
FFFFFFFFFFFFFFFFFFFFFFFFC0
7FFFFFFFFFFFFFFFFFFFFFFF80
7FFFFFFFFFFFFFFFFFFFFFFF80
7FFFFFFFFFFFFFFFFFFFFFFF00
7FFFFFFFFFFFFFFFFFFFFFFF00
3FFFFFFFFFFFFFFFFFFFFFFE00
3FFFFFFFFFFFFFFFFFFFFFFC00
1FFFFFFFFFFFFFFFFFFFFFFC00
1FFFFFFFFFFFFFFFFFFFFFF800
0FFFFFFFFFFFFFFFFFFFFFF000
07FFFFFFFFFFFFFFFFFFFFE000
03FFFFFFFFFFFFFFFFFFFFC000
01FFFFFFFFFFFFFFFFFFFF8000
00FFFFFFFFFFFFFFFFFFFE0000
007FFFFFFFFFFFFFFFFFFC0000
003FFFFFFFFFFFFFFFFFF00000
000FFFFFFFFFFFFFFFFFC00000
0003FFFFFFFFFFFFFFFF000000
00003FFFFFFFFFFFFFF0000000
ENDCHAR
STARTCHAR $0045
ENCODING 69
SWIDTH 890 0
DWIDTH 114 0
BBX 100 95 0 0
BITMAP
000000FFFFFFFFFFFFFFC00000
00000FFFFFFFFFFFFFFFFC0000
00003FFFFFFFFFFFFFFFFF0000
0001FFFFFFFFFFFFFFFFFF8000
0003FFFFFFFFFFFFFFFFFFE000
000FFFFFFFFFFFFFFFFFFFF000
001FFFFFFFFFFFFFFFFFFFF800
003FFFFFFFFFFFFFFFFFFFFC00
007FFFFFFFFFFFFFFFFFFFFE00
00FFFFFFFFFFFFFFFFFFFFFF00
01FFFFFFFFFFFFFFFFFFFFFF00
03FFFFFFFFFFFFFFFFFFFFFF80
07FFFFFFFFFFFFFFFFFFFFFF80
07FFFFFFFFFFFFFFFFFFFFFFC0
0FFFFFFFFFFFFFFFFFFFFFFFC0
1FFFFFFFFFFFFFFFFFFFFFFFE0
1FFFFFFFFFFFFFFFFFFFFFFFE0
3FFFFFFFFFFFFFFFFFFFFFFFE0
3FFFFFFFFFFFFFFFFFFFFFFFE0
3FFFFFC0000000000001FFFFF0
7FFFFF00000000000000FFFFF0
7FFFFE000000000000007FFFF0
7FFFFC000000000000007FFFF0
FFFFF8000000000000007FFFF0
FFFFF0000000000000007FFFF0
FFFFF0000000000000007FFFE0
FFFFE0000000000000003FFFE0
FFFFE0000000000000003FFFE0
FFFFE0000000000000001FFFC0
FFFFE0000000000000000FFF80
FFFFE00000000000000007FF00
FFFFE00000000000000001FC00
FFFFE000000000000000000000
FFFFE000000000000000000000
FFFFE000000000000000000000
FFFFE000000000000000000000
FFFFFFFFFFF800000000000000
FFFFFFFFFFFE00000000000000
FFFFFFFFFFFF00000000000000
FFFFFFFFFFFF80000000000000
FFFFFFFFFFFFC0000000000000
FFFFFFFFFFFFC0000000000000
FFFFFFFFFFFFE0000000000000
FFFFFFFFFFFFE0000000000000
FFFFFFFFFFFFE0000000000000
FFFFFFFFFFFFE0000000000000
FFFFFFFFFFFFE0000000000000
FFFFFFFFFFFFE0000000000000
FFFFFFFFFFFFE0000000000000
FFFFFFFFFFFFC0000000000000
FFFFFFFFFFFFC0000000000000
FFFFFFFFFFFF80000000000000
FFFFFFFFFFFF00000000000000
FFFFFFFFFFFE00000000000000
FFFFFFFFFFF800000000000000
FFFFE000000000000000000000
FFFFE000000000000000000000
FFFFE000000000000000000000
FFFFE000000000000000000000
FFFFE000000000000000000000
FFFFE000000000000000000000
FFFFE000000000000000000000
FFFFE000000000000000000000
FFFFE00000000000000000F800
FFFFE00000000000000003FE00
FFFFE0000000000000000FFF80
FFFFE0000000000000001FFFC0
FFFFE0000000000000001FFFC0
FFFFE0000000000000003FFFE0
FFFFE0000000000000007FFFE0
FFFFF0000000000000007FFFF0
FFFFF0000000000000007FFFF0
7FFFF8000000000000007FFFF0
7FFFFC000000000000007FFFF0
7FFFFE000000000000007FFFF0
3FFFFF00000000000000FFFFF0
3FFFFFC0000000000001FFFFF0
3FFFFFFFFFFFFFFFFFFFFFFFE0
1FFFFFFFFFFFFFFFFFFFFFFFE0
1FFFFFFFFFFFFFFFFFFFFFFFE0
0FFFFFFFFFFFFFFFFFFFFFFFC0
07FFFFFFFFFFFFFFFFFFFFFFC0
07FFFFFFFFFFFFFFFFFFFFFFC0
03FFFFFFFFFFFFFFFFFFFFFF80
01FFFFFFFFFFFFFFFFFFFFFF00
00FFFFFFFFFFFFFFFFFFFFFF00
007FFFFFFFFFFFFFFFFFFFFE00
003FFFFFFFFFFFFFFFFFFFFC00
001FFFFFFFFFFFFFFFFFFFF800
000FFFFFFFFFFFFFFFFFFFF000
0003FFFFFFFFFFFFFFFFFFE000
0001FFFFFFFFFFFFFFFFFFC000
00007FFFFFFFFFFFFFFFFF0000
00000FFFFFFFFFFFFFFFFC0000
000000FFFFFFFFFFFFFFC00000
ENDCHAR
STARTCHAR $0046
ENCODING 70
SWIDTH 890 0
DWIDTH 114 0
BBX 102 97 0 -2
BITMAP
0000007FFFFFFFFFFFFFF00000
000007FFFFFFFFFFFFFFFE0000
00003FFFFFFFFFFFFFFFFFC000
0000FFFFFFFFFFFFFFFFFFE000
0003FFFFFFFFFFFFFFFFFFF800
0007FFFFFFFFFFFFFFFFFFFC00
000FFFFFFFFFFFFFFFFFFFFE00
003FFFFFFFFFFFFFFFFFFFFF00
007FFFFFFFFFFFFFFFFFFFFF80
00FFFFFFFFFFFFFFFFFFFFFFC0
01FFFFFFFFFFFFFFFFFFFFFFC0
01FFFFFFFFFFFFFFFFFFFFFFE0
03FFFFFFFFFFFFFFFFFFFFFFE0
07FFFFFFFFFFFFFFFFFFFFFFF0
0FFFFFFFFFFFFFFFFFFFFFFFF0
0FFFFFFFFFFFFFFFFFFFFFFFF8
1FFFFFFFFFFFFFFFFFFFFFFFF8
1FFFFFFFFFFFFFFFFFFFFFFFF8
3FFFFFFFFFFFFFFFFFFFFFFFFC
3FFFFFFFFFFFFFFFFFFFFFFFFC
3FFFFFE00000000000007FFFFC
7FFFFF800000000000001FFFFC
7FFFFE000000000000001FFFFC
7FFFFC000000000000001FFFFC
7FFFF8000000000000001FFFFC
FFFFF8000000000000001FFFFC
FFFFF0000000000000001FFFFC
FFFFF0000000000000000FFFF8
FFFFE0000000000000000FFFF8
FFFFE00000000000000007FFF0
FFFFE00000000000000003FFE0
FFFFE00000000000000001FFC0
FFFFE000000000000000007F00
FFFFE000000000000000000000
FFFFE000000000000000000000
FFFFE000000000000000000000
FFFFE000000000000000000000
FFFFE000000000000000000000
FFFFE000000000000000000000
FFFFE000000000000000000000
FFFFE000000000000000000000
FFFFE000000000000000000000
FFFFFFFFFFFFFFF80000000000
FFFFFFFFFFFFFFFE0000000000
FFFFFFFFFFFFFFFF0000000000
FFFFFFFFFFFFFFFF8000000000
FFFFFFFFFFFFFFFFC000000000
FFFFFFFFFFFFFFFFE000000000
FFFFFFFFFFFFFFFFE000000000
FFFFFFFFFFFFFFFFE000000000
FFFFFFFFFFFFFFFFF000000000
FFFFFFFFFFFFFFFFF000000000
FFFFFFFFFFFFFFFFF000000000
FFFFFFFFFFFFFFFFE000000000
FFFFFFFFFFFFFFFFE000000000
FFFFFFFFFFFFFFFFE000000000
FFFFFFFFFFFFFFFFC000000000
FFFFFFFFFFFFFFFF8000000000
FFFFFFFFFFFFFFFF0000000000
FFFFFFFFFFFFFFFE0000000000
FFFFFFFFFFFFFFF80000000000
FFFFE000000000000000000000
FFFFE000000000000000000000
FFFFE000000000000000000000
FFFFE000000000000000000000
FFFFE000000000000000000000
FFFFE000000000000000000000
FFFFE000000000000000000000
FFFFE000000000000000000000
FFFFE000000000000000000000
FFFFE000000000000000000000
FFFFE000000000000000000000
FFFFE000000000000000000000
FFFFE000000000000000000000
FFFFE000000000000000000000
FFFFE000000000000000000000
FFFFE000000000000000000000
FFFFE000000000000000000000
FFFFE000000000000000000000
FFFFE000000000000000000000
FFFFE000000000000000000000
FFFFE000000000000000000000
FFFFE000000000000000000000
FFFFE000000000000000000000
FFFFE000000000000000000000
FFFFE000000000000000000000
FFFFE000000000000000000000
FFFFE000000000000000000000
FFFFE000000000000000000000
FFFFE000000000000000000000
7FFFE000000000000000000000
7FFFC000000000000000000000
7FFFC000000000000000000000
3FFF8000000000000000000000
1FFF0000000000000000000000
0FFE0000000000000000000000
03F80000000000000000000000
ENDCHAR
STARTCHAR $0047
ENCODING 71
SWIDTH 890 0
DWIDTH 114 0
BBX 100 95 0 0
BITMAP
000000FFFFFFFFFFFFFFC00000
00000FFFFFFFFFFFFFFFFC0000
00003FFFFFFFFFFFFFFFFF0000
0001FFFFFFFFFFFFFFFFFF8000
0003FFFFFFFFFFFFFFFFFFE000
000FFFFFFFFFFFFFFFFFFFF000
001FFFFFFFFFFFFFFFFFFFF800
003FFFFFFFFFFFFFFFFFFFFC00
007FFFFFFFFFFFFFFFFFFFFE00
00FFFFFFFFFFFFFFFFFFFFFF00
01FFFFFFFFFFFFFFFFFFFFFF00
03FFFFFFFFFFFFFFFFFFFFFF80
07FFFFFFFFFFFFFFFFFFFFFF80
07FFFFFFFFFFFFFFFFFFFFFFC0
0FFFFFFFFFFFFFFFFFFFFFFFC0
1FFFFFFFFFFFFFFFFFFFFFFFE0
1FFFFFFFFFFFFFFFFFFFFFFFE0
3FFFFFFFFFFFFFFFFFFFFFFFE0
3FFFFFFFFFFFFFFFFFFFFFFFE0
3FFFFFC0000000000001FFFFF0
7FFFFF00000000000000FFFFF0
7FFFFE000000000000007FFFF0
7FFFFC000000000000007FFFF0
FFFFF8000000000000007FFFF0
FFFFF0000000000000007FFFF0
FFFFF0000000000000007FFFE0
FFFFE0000000000000003FFFE0
FFFFE0000000000000003FFFE0
FFFFE0000000000000001FFFC0
FFFFE0000000000000000FFF80
FFFFE00000000000000007FF00
FFFFE00000000000000001FC00
FFFFE000000000000000000000
FFFFE000000000000000000000
FFFFE000000000000000000000
FFFFE000000000000000000000
FFFFE000000000000000000000
FFFFE000000000000000000000
FFFFE000000000000000000000
FFFFE000000000000000000000
FFFFE000000000000000000000
FFFFE000000000000000000000
FFFFE000000000000000000000
FFFFE000000000000000000000
FFFFE000000000000000000000
FFFFE000000000000000000000
FFFFE000000000000006000000
FFFFE00000000000003FF00000
FFFFE0000000000000FFFC0000
FFFFE0000000000001FFFF0000
FFFFE0000000000003FFFF8000
FFFFE0000000000003FFFFC000
FFFFE0000000000007FFFFE000
FFFFE0000000000007FFFFF000
FFFFE0000000000007FFFFF800
FFFFE0000000000007FFFFFC00
FFFFE0000000000007FFFFFC00
FFFFE0000000000007FFFFFE00
FFFFE0000000000007FFFFFF00
FFFFE0000000000007FFFFFF00
FFFFE0000000000003FFFFFF80
FFFFE0000000000001FFFFFF80
FFFFE0000000000001FFFFFF80
FFFFE00000000000007FFFFFC0
FFFFE00000000000001FFFFFC0
FFFFE000000000000007FFFFC0
FFFFE000000000000001FFFFE0
FFFFE000000000000001FFFFE0
FFFFE000000000000000FFFFE0
FFFFF000000000000000FFFFE0
FFFFF000000000000000FFFFE0
FFFFF800000000000000FFFFE0
7FFFFC00000000000001FFFFE0
7FFFFE00000000000001FFFFE0
7FFFFF00000000000003FFFFE0
3FFFFFC0000000000007FFFFC0
3FFFFFFFFFFFFFFFFFFFFFFFC0
3FFFFFFFFFFFFFFFFFFFFFFFC0
1FFFFFFFFFFFFFFFFFFFFFFFC0
1FFFFFFFFFFFFFFFFFFFFFFF80
0FFFFFFFFFFFFFFFFFFFFFFF80
07FFFFFFFFFFFFFFFFFFFFFF00
07FFFFFFFFFFFFFFFFFFFFFF00
03FFFFFFFFFFFFFFFFFFFFFE00
01FFFFFFFFFFFFFFFFFFFFFE00
00FFFFFFFFFFFFFFFFFFFFFC00
007FFFFFFFFFFFFFFFFFFFF800
003FFFFFFFFFFFFFFFFFFFF000
001FFFFFFFFFFFFFFFFFFFE000
000FFFFFFFFFFFFFFFFFFFC000
0003FFFFFFFFFFFFFFFFFF8000
0001FFFFFFFFFFFFFFFFFE0000
00007FFFFFFFFFFFFFFFF80000
00000FFFFFFFFFFFFFFFE00000
000000FFFFFFFFFFFFFF000000
ENDCHAR
STARTCHAR $0048
ENCODING 72
SWIDTH 890 0
DWIDTH 114 0
BBX 102 98 0 -2
BITMAP
01F00000000000000000003F00
0FFE000000000000000001FFC0
1FFF000000000000000003FFE0
3FFF800000000000000007FFF0
7FFFC0000000000000000FFFF8
7FFFC0000000000000000FFFF8
FFFFE0000000000000001FFFFC
FFFFE0000000000000001FFFFC
FFFFE0000000000000001FFFFC
FFFFE0000000000000001FFFFC
FFFFE0000000000000001FFFFC
FFFFE0000000000000001FFFFC
FFFFE0000000000000001FFFFC
FFFFE0000000000000001FFFFC
FFFFE0000000000000001FFFFC
FFFFE0000000000000001FFFFC
FFFFE0000000000000001FFFFC
FFFFE0000000000000001FFFFC
FFFFE0000000000000001FFFFC
FFFFE0000000000000001FFFFC
FFFFE0000000000000001FFFFC
FFFFE0000000000000001FFFFC
FFFFE0000000000000001FFFFC
FFFFE0000000000000001FFFFC
FFFFE0000000000000001FFFFC
FFFFE0000000000000001FFFFC
FFFFE0000000000000001FFFFC
FFFFE0000000000000001FFFFC
FFFFE0000000000000001FFFFC
FFFFE0000000000000001FFFFC
FFFFE0000000000000001FFFFC
FFFFE0000000000000001FFFFC
FFFFE0000000000000001FFFFC
FFFFE0000000000000001FFFFC
FFFFE0000000000000001FFFFC
FFFFE0000000000000001FFFFC
FFFFE0000000000000001FFFFC
FFFFE0000000000000001FFFFC
FFFFE0000000000000001FFFFC
FFFFE0000000000000001FFFFC
FFFFE0000000000000001FFFFC
FFFFE0000000000000001FFFFC
FFFFE0000000000000001FFFFC
FFFFFFFFFFFFFFFFFFFFFFFFFC
FFFFFFFFFFFFFFFFFFFFFFFFFC
FFFFFFFFFFFFFFFFFFFFFFFFFC
FFFFFFFFFFFFFFFFFFFFFFFFFC
FFFFFFFFFFFFFFFFFFFFFFFFFC
FFFFFFFFFFFFFFFFFFFFFFFFFC
FFFFFFFFFFFFFFFFFFFFFFFFFC
FFFFFFFFFFFFFFFFFFFFFFFFFC
FFFFFFFFFFFFFFFFFFFFFFFFFC
FFFFFFFFFFFFFFFFFFFFFFFFFC
FFFFFFFFFFFFFFFFFFFFFFFFFC
FFFFFFFFFFFFFFFFFFFFFFFFFC
FFFFFFFFFFFFFFFFFFFFFFFFFC
FFFFFFFFFFFFFFFFFFFFFFFFFC
FFFFFFFFFFFFFFFFFFFFFFFFFC
FFFFFFFFFFFFFFFFFFFFFFFFFC
FFFFFFFFFFFFFFFFFFFFFFFFFC
FFFFFFFFFFFFFFFFFFFFFFFFFC
FFFFFFFFFFFFFFFFFFFFFFFFFC
FFFFE0000000000000001FFFFC
FFFFE0000000000000001FFFFC
FFFFE0000000000000001FFFFC
FFFFE0000000000000001FFFFC
FFFFE0000000000000001FFFFC
FFFFE0000000000000001FFFFC
FFFFE0000000000000001FFFFC
FFFFE0000000000000001FFFFC
FFFFE0000000000000001FFFFC
FFFFE0000000000000001FFFFC
FFFFE0000000000000001FFFFC
FFFFE0000000000000001FFFFC
FFFFE0000000000000001FFFFC
FFFFE0000000000000001FFFFC
FFFFE0000000000000001FFFFC
FFFFE0000000000000001FFFFC
FFFFE0000000000000001FFFFC
FFFFE0000000000000001FFFFC
FFFFE0000000000000001FFFFC
FFFFE0000000000000001FFFFC
FFFFE0000000000000001FFFFC
FFFFE0000000000000001FFFFC
FFFFE0000000000000001FFFFC
FFFFE0000000000000001FFFFC
FFFFE0000000000000001FFFFC
FFFFE0000000000000001FFFFC
FFFFE0000000000000001FFFFC
FFFFE0000000000000001FFFFC
FFFFE0000000000000001FFFFC
FFFFE0000000000000001FFFFC
7FFFC0000000000000000FFFF8
7FFFC0000000000000000FFFF8
3FFF800000000000000007FFF0
1FFF000000000000000003FFE0
0FFE000000000000000001FFC0
03F80000000000000000007F00
ENDCHAR
STARTCHAR $0049
ENCODING 73
SWIDTH 250 0
DWIDTH 32 0
BBX 19 98 0 -2
BITMAP
03F000
0FFE00
1FFF00
3FFF80
7FFFC0
7FFFC0
FFFFE0
FFFFE0
FFFFE0
FFFFE0
FFFFE0
FFFFE0
FFFFE0
FFFFE0
FFFFE0
FFFFE0
FFFFE0
FFFFE0
FFFFE0
FFFFE0
FFFFE0
FFFFE0
FFFFE0
FFFFE0
FFFFE0
FFFFE0
FFFFE0
FFFFE0
FFFFE0
FFFFE0
FFFFE0
FFFFE0
FFFFE0
FFFFE0
FFFFE0
FFFFE0
FFFFE0
FFFFE0
FFFFE0
FFFFE0
FFFFE0
FFFFE0
FFFFE0
FFFFE0
FFFFE0
FFFFE0
FFFFE0
FFFFE0
FFFFE0
FFFFE0
FFFFE0
FFFFE0
FFFFE0
FFFFE0
FFFFE0
FFFFE0
FFFFE0
FFFFE0
FFFFE0
FFFFE0
FFFFE0
FFFFE0
FFFFE0
FFFFE0
FFFFE0
FFFFE0
FFFFE0
FFFFE0
FFFFE0
FFFFE0
FFFFE0
FFFFE0
FFFFE0
FFFFE0
FFFFE0
FFFFE0
FFFFE0
FFFFE0
FFFFE0
FFFFE0
FFFFE0
FFFFE0
FFFFE0
FFFFE0
FFFFE0
FFFFE0
FFFFE0
FFFFE0
FFFFE0
FFFFE0
FFFFE0
FFFFE0
7FFFC0
7FFFC0
3FFF80
1FFF00
0FFE00
03F000
ENDCHAR
STARTCHAR $004A
ENCODING 74
SWIDTH 890 0
DWIDTH 114 0
BBX 102 97 0 -1
BITMAP
00000000000000000000007E00
0000000000000000000001FFC0
0000000000000000000003FFE0
0000000000000000000007FFF0
000000000000000000000FFFF0
000000000000000000000FFFF8
000000000000000000001FFFF8
000000000000000000001FFFFC
000000000000000000001FFFFC
000000000000000000001FFFFC
000000000000000000001FFFFC
000000000000000000001FFFFC
000000000000000000001FFFFC
000000000000000000001FFFFC
000000000000000000001FFFFC
000000000000000000001FFFFC
000000000000000000001FFFFC
000000000000000000001FFFFC
000000000000000000001FFFFC
000000000000000000001FFFFC
000000000000000000001FFFFC
000000000000000000001FFFFC
000000000000000000001FFFFC
000000000000000000001FFFFC
000000000000000000001FFFFC
000000000000000000001FFFFC
000000000000000000001FFFFC
000000000000000000001FFFFC
000000000000000000001FFFFC
000000000000000000001FFFFC
000000000000000000001FFFFC
000000000000000000001FFFFC
000000000000000000001FFFFC
000000000000000000001FFFFC
000000000000000000001FFFFC
000000000000000000001FFFFC
000000000000000000001FFFFC
000000000000000000001FFFFC
000000000000000000001FFFFC
000000000000000000001FFFFC
000000000000000000001FFFFC
000000000000000000001FFFFC
000000000000000000001FFFFC
000000000000000000001FFFFC
000000000000000000001FFFFC
000000000000000000001FFFFC
000000000000000000001FFFFC
000000000000000000001FFFFC
000000000000000000001FFFFC
000000000000000000001FFFFC
000000000000000000001FFFFC
000000000000000000001FFFFC
000000000000000000001FFFFC
000000000000000000001FFFFC
000000000000000000001FFFFC
000000000000000000001FFFFC
000000000000000000001FFFFC
000000000000000000001FFFFC
000000000000000000001FFFFC
000000000000000000001FFFFC
000000000000000000001FFFFC
000000000000000000001FFFFC
000000000000000000001FFFFC
000000000000000000001FFFFC
03F800000000000000001FFFFC
0FFE00000000000000001FFFFC
1FFF00000000000000001FFFFC
3FFF80000000000000001FFFFC
7FFF80000000000000001FFFFC
7FFFC0000000000000003FFFFC
FFFFC0000000000000003FFFFC
FFFFE0000000000000003FFFFC
FFFFE0000000000000007FFFF8
FFFFE0000000000000007FFFF8
FFFFE000000000000000FFFFF8
FFFFE000000000000001FFFFF8
FFFFE000000000000007FFFFF0
FFFFF00000000000001FFFFFF0
FFFFFFFFFFFFFFFFFFFFFFFFF0
7FFFFFFFFFFFFFFFFFFFFFFFE0
7FFFFFFFFFFFFFFFFFFFFFFFE0
7FFFFFFFFFFFFFFFFFFFFFFFC0
7FFFFFFFFFFFFFFFFFFFFFFF80
3FFFFFFFFFFFFFFFFFFFFFFF80
3FFFFFFFFFFFFFFFFFFFFFFF00
1FFFFFFFFFFFFFFFFFFFFFFE00
0FFFFFFFFFFFFFFFFFFFFFFE00
0FFFFFFFFFFFFFFFFFFFFFFC00
07FFFFFFFFFFFFFFFFFFFFF800
03FFFFFFFFFFFFFFFFFFFFF000
01FFFFFFFFFFFFFFFFFFFFC000
00FFFFFFFFFFFFFFFFFFFF8000
007FFFFFFFFFFFFFFFFFFF0000
003FFFFFFFFFFFFFFFFFFC0000
000FFFFFFFFFFFFFFFFFF00000
0003FFFFFFFFFFFFFFFF800000
00003FFFFFFFFFFFFFF8000000
ENDCHAR
STARTCHAR $004B
ENCODING 75
SWIDTH 890 0
DWIDTH 114 0
BBX 106 99 0 -2
BITMAP
01F800000000000000000FE00000
0FFE00000000000000003FF80000
1FFF00000000000000007FFC0000
3FFF8000000000000000FFFE0000
7FFFC000000000000001FFFF0000
7FFFC000000000000001FFFF0000
FFFFC000000000000001FFFF8000
FFFFE000000000000003FFFF8000
FFFFE000000000000003FFFF8000
FFFFE000000000000003FFFF8000
FFFFE000000000000003FFFF8000
FFFFE000000000000007FFFF8000
FFFFE000000000000007FFFF8000
FFFFE000000000000007FFFF8000
FFFFE000000000000007FFFF0000
FFFFE00000000000000FFFFF0000
FFFFE00000000000000FFFFF0000
FFFFE00000000000000FFFFF0000
FFFFE00000000000000FFFFE0000
FFFFE00000000000000FFFFE0000
FFFFE00000000000001FFFFE0000
FFFFE00000000000001FFFFE0000
FFFFE00000000000001FFFFE0000
FFFFE00000000000001FFFFC0000
FFFFE00000000000003FFFFC0000
FFFFE00000000000003FFFFC0000
FFFFE00000000000003FFFFC0000
FFFFE00000000000003FFFF80000
FFFFE00000000000007FFFF80000
FFFFE0000000000000FFFFF80000
FFFFE0000000000000FFFFF80000
FFFFE0000000000001FFFFF00000
FFFFE0000000000003FFFFF00000
FFFFE000000000000FFFFFF00000
FFFFE00000000000FFFFFFE00000
FFFFFFFFFFFFFFFFFFFFFFE00000
FFFFFFFFFFFFFFFFFFFFFFE00000
FFFFFFFFFFFFFFFFFFFFFFC00000
FFFFFFFFFFFFFFFFFFFFFFC00000
FFFFFFFFFFFFFFFFFFFFFF800000
FFFFFFFFFFFFFFFFFFFFFF000000
FFFFFFFFFFFFFFFFFFFFFF000000
FFFFFFFFFFFFFFFFFFFFFF800000
FFFFFFFFFFFFFFFFFFFFFFC00000
FFFFFFFFFFFFFFFFFFFFFFE00000
FFFFFFFFFFFFFFFFFFFFFFF00000
FFFFFFFFFFFFFFFFFFFFFFF80000
FFFFFFFFFFFFFFFFFFFFFFFC0000
FFFFFFFFFFFFFFFFFFFFFFFE0000
FFFFFFFFFFFFFFFFFFFFFFFE0000
FFFFFFFFFFFFFFFFFFFFFFFF0000
FFFFFFFFFFFFFFFFFFFFFFFF0000
FFFFFFFFFFFFFFFFFFFFFFFF8000
FFFFFFFFFFFFFFFFFFFFFFFF8000
FFFFE0000000000003FFFFFFC000
FFFFE00000000000003FFFFFC000
FFFFE00000000000000FFFFFC000
FFFFE000000000000007FFFFE000
FFFFE000000000000003FFFFE000
FFFFE000000000000001FFFFE000
FFFFE000000000000001FFFFE000
FFFFE000000000000000FFFFF000
FFFFE000000000000000FFFFF000
FFFFE000000000000000FFFFF000
FFFFE000000000000000FFFFF000
FFFFE0000000000000007FFFF000
FFFFE0000000000000007FFFF800
FFFFE0000000000000007FFFF800
FFFFE0000000000000007FFFF800
FFFFE0000000000000003FFFF800
FFFFE0000000000000003FFFFC00
FFFFE0000000000000003FFFFC00
FFFFE0000000000000003FFFFC00
FFFFE0000000000000001FFFFC00
FFFFE0000000000000001FFFFE00
FFFFE0000000000000001FFFFE00
FFFFE0000000000000001FFFFE00
FFFFE0000000000000001FFFFE00
FFFFE0000000000000000FFFFE00
FFFFE0000000000000000FFFFF00
FFFFE0000000000000000FFFFF00
FFFFE0000000000000000FFFFF00
FFFFE00000000000000007FFFF00
FFFFE00000000000000007FFFF80
FFFFE00000000000000007FFFF80
FFFFE00000000000000007FFFF80
FFFFE00000000000000003FFFF80
FFFFE00000000000000003FFFFC0
FFFFE00000000000000003FFFFC0
FFFFE00000000000000003FFFFC0
FFFFE00000000000000003FFFFC0
FFFFE00000000000000001FFFFC0
FFFFE00000000000000001FFFF80
7FFFC00000000000000001FFFF80
7FFFC00000000000000000FFFF00
3FFF8000000000000000007FFF00
1FFF0000000000000000003FFE00
0FFE0000000000000000001FF800
03F800000000000000000007E000
ENDCHAR
STARTCHAR $004C
ENCODING 76
SWIDTH 890 0
DWIDTH 114 0
BBX 102 97 0 -1
BITMAP
01F80000000000000000000000
0FFE0000000000000000000000
1FFF0000000000000000000000
3FFF8000000000000000000000
7FFFC000000000000000000000
7FFFC000000000000000000000
7FFFE000000000000000000000
FFFFE000000000000000000000
FFFFE000000000000000000000
FFFFE000000000000000000000
FFFFE000000000000000000000
FFFFE000000000000000000000
FFFFE000000000000000000000
FFFFE000000000000000000000
FFFFE000000000000000000000
FFFFE000000000000000000000
FFFFE000000000000000000000
FFFFE000000000000000000000
FFFFE000000000000000000000
FFFFE000000000000000000000
FFFFE000000000000000000000
FFFFE000000000000000000000
FFFFE000000000000000000000
FFFFE000000000000000000000
FFFFE000000000000000000000
FFFFE000000000000000000000
FFFFE000000000000000000000
FFFFE000000000000000000000
FFFFE000000000000000000000
FFFFE000000000000000000000
FFFFE000000000000000000000
FFFFE000000000000000000000
FFFFE000000000000000000000
FFFFE000000000000000000000
FFFFE000000000000000000000
FFFFE000000000000000000000
FFFFE000000000000000000000
FFFFE000000000000000000000
FFFFE000000000000000000000
FFFFE000000000000000000000
FFFFE000000000000000000000
FFFFE000000000000000000000
FFFFE000000000000000000000
FFFFE000000000000000000000
FFFFE000000000000000000000
FFFFE000000000000000000000
FFFFE000000000000000000000
FFFFE000000000000000000000
FFFFE000000000000000000000
FFFFE000000000000000000000
FFFFE000000000000000000000
FFFFE000000000000000000000
FFFFE000000000000000000000
FFFFE000000000000000000000
FFFFE000000000000000000000
FFFFE000000000000000000000
FFFFE000000000000000000000
FFFFE000000000000000000000
FFFFE000000000000000000000
FFFFE000000000000000000000
FFFFE000000000000000000000
FFFFE000000000000000000000
FFFFE000000000000000000000
FFFFE000000000000000000000
FFFFE000000000000000007F00
FFFFE00000000000000001FFC0
FFFFE00000000000000003FFE0
FFFFE00000000000000007FFF0
FFFFE00000000000000007FFF8
FFFFE0000000000000000FFFF8
FFFFF0000000000000000FFFFC
FFFFF0000000000000001FFFFC
7FFFF8000000000000001FFFFC
7FFFF8000000000000001FFFFC
7FFFFC000000000000001FFFFC
7FFFFE000000000000001FFFFC
3FFFFF800000000000003FFFFC
3FFFFFE00000000000007FFFFC
3FFFFFFFFFFFFFFFFFFFFFFFFC
1FFFFFFFFFFFFFFFFFFFFFFFF8
1FFFFFFFFFFFFFFFFFFFFFFFF8
0FFFFFFFFFFFFFFFFFFFFFFFF8
0FFFFFFFFFFFFFFFFFFFFFFFF0
07FFFFFFFFFFFFFFFFFFFFFFF0
03FFFFFFFFFFFFFFFFFFFFFFF0
01FFFFFFFFFFFFFFFFFFFFFFE0
01FFFFFFFFFFFFFFFFFFFFFFC0
00FFFFFFFFFFFFFFFFFFFFFFC0
007FFFFFFFFFFFFFFFFFFFFF80
003FFFFFFFFFFFFFFFFFFFFF00
000FFFFFFFFFFFFFFFFFFFFE00
0007FFFFFFFFFFFFFFFFFFFC00
0003FFFFFFFFFFFFFFFFFFF800
0000FFFFFFFFFFFFFFFFFFE000
00003FFFFFFFFFFFFFFFFFC000
000007FFFFFFFFFFFFFFFF0000
0000007FFFFFFFFFFFFFF00000
ENDCHAR
STARTCHAR $004D
ENCODING 77
SWIDTH 1148 0
DWIDTH 147 0
BBX 98 97 0 -2
BITMAP
0000007FFFFFFFFFFF80000000
000007FFFFFFFFFFFFF8000000
00003FFFFFFFFFFFFFFF000000
0000FFFFFFFFFFFFFFFFC00000
0003FFFFFFFFFFFFFFFFF00000
0007FFFFFFFFFFFFFFFFF80000
001FFFFFFFFFFFFFFFFFFE0000
003FFFFFFFFFFFFFFFFFFF0000
007FFFFFFFFFFFFFFFFFFF8000
00FFFFFFFFFFFFFFFFFFFFC000
01FFFFFFFFFFFFFFFFFFFFE000
03FFFFFFFFFFFFFFFFFFFFF000
03FFFFFFFFFFFFFFFFFFFFF000
07FFFFFFFFFFFFFFFFFFFFF800
0FFFFFFFFFFFFFFFFFFFFFFC00
0FFFFFFFFFFFFFFFFFFFFFFC00
1FFFFFFFFFFFFFFFFFFFFFFE00
1FFFFFFFFFFFFFFFFFFFFFFE00
3FFFFFF007FFFFF003FFFFFF00
3FFFFFC001FFFFC000FFFFFF00
7FFFFF0001FFFFC0003FFFFF80
7FFFFE0001FFFFC0001FFFFF80
7FFFFC0001FFFFC0000FFFFF80
7FFFF80001FFFFC00007FFFF80
FFFFF00001FFFFC00003FFFFC0
FFFFF00001FFFFC00003FFFFC0
FFFFE00001FFFFC00001FFFFC0
FFFFE00001FFFFC00001FFFFC0
FFFFE00001FFFFC00001FFFFC0
FFFFE00001FFFFC00001FFFFC0
FFFFE00001FFFFC00001FFFFC0
FFFFE00001FFFFC00001FFFFC0
FFFFE00001FFFFC00001FFFFC0
FFFFE00001FFFFC00001FFFFC0
FFFFE00001FFFFC00001FFFFC0
FFFFE00001FFFFC00001FFFFC0
FFFFE00001FFFFC00001FFFFC0
FFFFE00001FFFFC00001FFFFC0
FFFFE00001FFFFC00001FFFFC0
FFFFE00001FFFFC00001FFFFC0
FFFFE00001FFFFC00001FFFFC0
FFFFE00001FFFFC00001FFFFC0
FFFFE00001FFFFC00001FFFFC0
FFFFE00001FFFFC00001FFFFC0
FFFFE00001FFFFC00001FFFFC0
FFFFE00001FFFFC00001FFFFC0
FFFFE00001FFFFC00001FFFFC0
FFFFE00001FFFFC00001FFFFC0
FFFFE00001FFFFC00001FFFFC0
FFFFE00001FFFFC00001FFFFC0
FFFFE00001FFFFC00001FFFFC0
FFFFE00001FFFFC00001FFFFC0
FFFFE00001FFFFC00001FFFFC0
FFFFE00001FFFFC00001FFFFC0
FFFFE00001FFFFC00001FFFFC0
FFFFE00001FFFFC00001FFFFC0
FFFFE00001FFFFC00001FFFFC0
FFFFE00001FFFFC00001FFFFC0
FFFFE00001FFFFC00001FFFFC0
FFFFE00001FFFFC00001FFFFC0
FFFFE00001FFFFC00001FFFFC0
FFFFE00001FFFFC00001FFFFC0
FFFFE00001FFFFC00001FFFFC0
FFFFE00001FFFFC00001FFFFC0
FFFFE00001FFFFC00001FFFFC0
FFFFE00001FFFFC00001FFFFC0
FFFFE00001FFFFC00001FFFFC0
FFFFE00001FFFFC00001FFFFC0
FFFFE00001FFFFC00001FFFFC0
FFFFE00001FFFFC00001FFFFC0
FFFFE00001FFFFC00001FFFFC0
FFFFE00001FFFFC00001FFFFC0
FFFFE00001FFFFC00001FFFFC0
FFFFE00001FFFFC00001FFFFC0
FFFFE00001FFFFC00001FFFFC0
FFFFE00001FFFFC00001FFFFC0
FFFFE00001FFFFC00001FFFFC0
FFFFE00001FFFFC00001FFFFC0
FFFFE00001FFFFC00001FFFFC0
FFFFE00001FFFFC00001FFFFC0
FFFFE00001FFFFC00001FFFFC0
FFFFE00001FFFFC00001FFFFC0
FFFFE00001FFFFC00001FFFFC0
FFFFE00001FFFFC00001FFFFC0
FFFFE00001FFFFC00001FFFFC0
FFFFE00001FFFFC00001FFFFC0
FFFFE00001FFFFC00001FFFFC0
FFFFE00001FFFFC00001FFFFC0
FFFFE00001FFFFC00001FFFFC0
FFFFE00001FFFFC00001FFFFC0
FFFFC00001FFFF800001FFFF80
7FFFC00000FFFF800000FFFF80
7FFFC00000FFFF000000FFFF00
3FFF8000007FFF0000007FFF00
1FFF0000003FFE0000003FFE00
0FFE0000001FF80000001FF800
03F800000007E000000007E000
ENDCHAR
STARTCHAR $004E
ENCODING 78
SWIDTH 890 0
DWIDTH 114 0
BBX 108 97 0 -2
BITMAP
0000007FFFFFFFFFFC0000000000
000007FFFFFFFFFFFFC000000000
00003FFFFFFFFFFFFFF800000000
0000FFFFFFFFFFFFFFFE00000000
0003FFFFFFFFFFFFFFFF00000000
0007FFFFFFFFFFFFFFFFC0000000
001FFFFFFFFFFFFFFFFFE0000000
003FFFFFFFFFFFFFFFFFF0000000
007FFFFFFFFFFFFFFFFFFC000000
00FFFFFFFFFFFFFFFFFFFE000000
01FFFFFFFFFFFFFFFFFFFE000000
01FFFFFFFFFFFFFFFFFFFF000000
03FFFFFFFFFFFFFFFFFFFF800000
07FFFFFFFFFFFFFFFFFFFFC00000
0FFFFFFFFFFFFFFFFFFFFFC00000
0FFFFFFFFFFFFFFFFFFFFFE00000
1FFFFFFFFFFFFFFFFFFFFFF00000
1FFFFFFFFFFFFFFFFFFFFFF00000
3FFFFFFFFFFFFFFFFFFFFFF80000
3FFFFFE0000000000FFFFFF80000
3FFFFF800000000003FFFFF80000
7FFFFE000000000000FFFFFC0000
7FFFFC0000000000007FFFFC0000
7FFFF80000000000003FFFFC0000
7FFFF80000000000003FFFFC0000
FFFFF00000000000001FFFFE0000
FFFFF00000000000001FFFFE0000
FFFFE00000000000001FFFFE0000
FFFFE00000000000000FFFFE0000
FFFFE00000000000000FFFFF0000
FFFFE00000000000000FFFFF0000
FFFFE00000000000000FFFFF0000
FFFFE000000000000007FFFF0000
FFFFE000000000000007FFFF0000
FFFFE000000000000007FFFF8000
FFFFE000000000000007FFFF8000
FFFFE000000000000007FFFF8000
FFFFE000000000000003FFFF8000
FFFFE000000000000003FFFFC000
FFFFE000000000000003FFFFC000
FFFFE000000000000003FFFFC000
FFFFE000000000000001FFFFC000
FFFFE000000000000001FFFFC000
FFFFE000000000000001FFFFE000
FFFFE000000000000001FFFFE000
FFFFE000000000000000FFFFE000
FFFFE000000000000000FFFFE000
FFFFE000000000000000FFFFF000
FFFFE000000000000000FFFFF000
FFFFE000000000000000FFFFF000
FFFFE0000000000000007FFFF000
FFFFE0000000000000007FFFF000
FFFFE0000000000000007FFFF800
FFFFE0000000000000007FFFF800
FFFFE0000000000000003FFFF800
FFFFE0000000000000003FFFF800
FFFFE0000000000000003FFFFC00
FFFFE0000000000000003FFFFC00
FFFFE0000000000000003FFFFC00
FFFFE0000000000000001FFFFC00
FFFFE0000000000000001FFFFC00
FFFFE0000000000000001FFFFE00
FFFFE0000000000000001FFFFE00
FFFFE0000000000000000FFFFE00
FFFFE0000000000000000FFFFE00
FFFFE0000000000000000FFFFF00
FFFFE0000000000000000FFFFF00
FFFFE0000000000000000FFFFF00
FFFFE00000000000000007FFFF00
FFFFE00000000000000007FFFF00
FFFFE00000000000000007FFFF80
FFFFE00000000000000007FFFF80
FFFFE00000000000000003FFFF80
FFFFE00000000000000003FFFF80
FFFFE00000000000000003FFFFC0
FFFFE00000000000000003FFFFC0
FFFFE00000000000000003FFFFC0
FFFFE00000000000000001FFFFC0
FFFFE00000000000000001FFFFC0
FFFFE00000000000000001FFFFE0
FFFFE00000000000000001FFFFE0
FFFFE00000000000000000FFFFE0
FFFFE00000000000000000FFFFE0
FFFFE00000000000000000FFFFF0
FFFFE00000000000000000FFFFF0
FFFFE00000000000000000FFFFF0
FFFFE000000000000000007FFFF0
FFFFE000000000000000007FFFF0
FFFFE000000000000000007FFFF0
FFFFE000000000000000007FFFF0
FFFFE000000000000000003FFFF0
7FFFC000000000000000003FFFE0
7FFFC000000000000000001FFFE0
3FFF8000000000000000001FFFC0
1FFF0000000000000000000FFF80
0FFE00000000000000000007FF00
03F800000000000000000000FC00
ENDCHAR
STARTCHAR $004F
ENCODING 79
SWIDTH 890 0
DWIDTH 114 0
BBX 100 95 0 0
BITMAP
000000FFFFFFFFFFFFF0000000
00000FFFFFFFFFFFFFFF000000
00003FFFFFFFFFFFFFFFC00000
0000FFFFFFFFFFFFFFFFF00000
0003FFFFFFFFFFFFFFFFFC0000
000FFFFFFFFFFFFFFFFFFF0000
001FFFFFFFFFFFFFFFFFFF8000
003FFFFFFFFFFFFFFFFFFFC000
007FFFFFFFFFFFFFFFFFFFE000
00FFFFFFFFFFFFFFFFFFFFF000
01FFFFFFFFFFFFFFFFFFFFF800
03FFFFFFFFFFFFFFFFFFFFFC00
03FFFFFFFFFFFFFFFFFFFFFC00
07FFFFFFFFFFFFFFFFFFFFFE00
0FFFFFFFFFFFFFFFFFFFFFFF00
0FFFFFFFFFFFFFFFFFFFFFFF00
1FFFFFFFFFFFFFFFFFFFFFFF80
1FFFFFFFFFFFFFFFFFFFFFFF80
3FFFFFFFFFFFFFFFFFFFFFFFC0
3FFFFFE000000000007FFFFFC0
7FFFFF0000000000000FFFFFE0
7FFFFE00000000000007FFFFE0
7FFFFC00000000000003FFFFE0
7FFFF800000000000001FFFFE0
FFFFF000000000000000FFFFF0
FFFFF000000000000000FFFFF0
FFFFE000000000000000FFFFF0
FFFFE0000000000000007FFFF0
FFFFE0000000000000007FFFF0
FFFFE0000000000000007FFFF0
FFFFE0000000000000007FFFF0
FFFFE0000000000000007FFFF0
FFFFE0000000000000007FFFF0
FFFFE0000000000000007FFFF0
FFFFE0000000000000007FFFF0
FFFFE0000000000000007FFFF0
FFFFE0000000000000007FFFF0
FFFFE0000000000000007FFFF0
FFFFE0000000000000007FFFF0
FFFFE0000000000000007FFFF0
FFFFE0000000000000007FFFF0
FFFFE0000000000000007FFFF0
FFFFE0000000000000007FFFF0
FFFFE0000000000000007FFFF0
FFFFE0000000000000007FFFF0
FFFFE0000000000000007FFFF0
FFFFE0000000000000007FFFF0
FFFFE0000000000000007FFFF0
FFFFE0000000000000007FFFF0
FFFFE0000000000000007FFFF0
FFFFE0000000000000007FFFF0
FFFFE0000000000000007FFFF0
FFFFE0000000000000007FFFF0
FFFFE0000000000000007FFFF0
FFFFE0000000000000007FFFF0
FFFFE0000000000000007FFFF0
FFFFE0000000000000007FFFF0
FFFFE0000000000000007FFFF0
FFFFE0000000000000007FFFF0
FFFFE0000000000000007FFFF0
FFFFE0000000000000007FFFF0
FFFFE0000000000000007FFFF0
FFFFE0000000000000007FFFF0
FFFFE0000000000000007FFFF0
FFFFE0000000000000007FFFF0
FFFFE0000000000000007FFFF0
FFFFE0000000000000007FFFF0
FFFFE0000000000000007FFFF0
FFFFE000000000000000FFFFF0
FFFFF000000000000000FFFFF0
FFFFF000000000000000FFFFF0
7FFFF800000000000001FFFFE0
7FFFFC00000000000003FFFFE0
7FFFFE00000000000007FFFFE0
7FFFFF0000000000000FFFFFE0
3FFFFFE000000000007FFFFFC0
3FFFFFFFFFFFFFFFFFFFFFFFC0
3FFFFFFFFFFFFFFFFFFFFFFF80
1FFFFFFFFFFFFFFFFFFFFFFF80
0FFFFFFFFFFFFFFFFFFFFFFF00
0FFFFFFFFFFFFFFFFFFFFFFF00
07FFFFFFFFFFFFFFFFFFFFFE00
07FFFFFFFFFFFFFFFFFFFFFE00
03FFFFFFFFFFFFFFFFFFFFFC00
01FFFFFFFFFFFFFFFFFFFFF800
00FFFFFFFFFFFFFFFFFFFFF000
007FFFFFFFFFFFFFFFFFFFE000
003FFFFFFFFFFFFFFFFFFFC000
001FFFFFFFFFFFFFFFFFFF8000
000FFFFFFFFFFFFFFFFFFF0000
0003FFFFFFFFFFFFFFFFFC0000
0000FFFFFFFFFFFFFFFFF00000
00003FFFFFFFFFFFFFFFC00000
00000FFFFFFFFFFFFFFF000000
000000FFFFFFFFFFFFF0000000
ENDCHAR
STARTCHAR $0050
ENCODING 80
SWIDTH 882 0
DWIDTH 113 0
BBX 102 97 0 -2
BITMAP
00003FFFFFFFFFFFFFF8000000
0001FFFFFFFFFFFFFFFF800000
0007FFFFFFFFFFFFFFFFF00000
001FFFFFFFFFFFFFFFFFFC0000
007FFFFFFFFFFFFFFFFFFF0000
00FFFFFFFFFFFFFFFFFFFF8000
01FFFFFFFFFFFFFFFFFFFFE000
03FFFFFFFFFFFFFFFFFFFFF000
07FFFFFFFFFFFFFFFFFFFFF800
0FFFFFFFFFFFFFFFFFFFFFFC00
0FFFFFFFFFFFFFFFFFFFFFFE00
1FFFFFFFFFFFFFFFFFFFFFFE00
3FFFFFFFFFFFFFFFFFFFFFFF00
3FFFFFFFFFFFFFFFFFFFFFFF80
3FFFFFFFFFFFFFFFFFFFFFFFC0
7FFFFFFFFFFFFFFFFFFFFFFFC0
7FFFFFFFFFFFFFFFFFFFFFFFE0
7FFFFFFFFFFFFFFFFFFFFFFFE0
FFFFFFFFFFFFFFFFFFFFFFFFF0
FFFFF00000000000001FFFFFF0
FFFFE000000000000007FFFFF0
FFFFE000000000000001FFFFF8
FFFFE000000000000000FFFFF8
FFFFE0000000000000007FFFF8
FFFFE0000000000000007FFFF8
FFFFE0000000000000003FFFFC
FFFFE0000000000000003FFFFC
FFFFE0000000000000001FFFFC
FFFFE0000000000000001FFFFC
FFFFE0000000000000001FFFFC
FFFFE0000000000000001FFFFC
FFFFE0000000000000001FFFFC
FFFFE0000000000000001FFFFC
FFFFE0000000000000003FFFFC
FFFFE0000000000000003FFFFC
FFFFE0000000000000003FFFFC
FFFFE0000000000000007FFFF8
FFFFE000000000000000FFFFF8
FFFFE000000000000001FFFFF8
FFFFE000000000000003FFFFF8
FFFFE00000000000000FFFFFF0
FFFFE00000000000007FFFFFF0
FFFFE000000000000FFFFFFFE0
FFFFE00000000001FFFFFFFFE0
FFFFE0000000001FFFFFFFFFC0
FFFFE000000003FFFFFFFFFFC0
FFFFE00000003FFFFFFFFFFF80
FFFFE0000007FFFFFFFFFFFF80
FFFFE000007FFFFFFFFFFFFF00
FFFFE0000FFFFFFFFFFFFFFE00
FFFFE000FFFFFFFFFFFFFFFC00
FFFFE01FFFFFFFFFFFFFFFF800
FFFFE1FFFFFFFFFFFFFFFFF000
FFFFFFFFFFFFFFFFFFFFFFE000
FFFFFFFFFFFFFFFFFFFFFFC000
FFFFFFFFFFFFFFFFFFFFFF8000
FFFFFFFFFFFFFFFFFFFFFE0000
FFFFFFFFFFFFFFFFFFFFF80000
FFFFFFFFFFFFFFFFFFFFE00000
FFFFFFFFFFFFFFFFFFFF800000
FFFFFFFFFFFFFFFFFFF0000000
FFFFFFFFFFFFFFFFFF00000000
FFFFFFFFFFFFFFFFE000000000
FFFFFFFFFFFFFFFE0000000000
FFFFFFFFFFFFFFC00000000000
FFFFFFFFFFFFFC000000000000
FFFFFFFFFFFF80000000000000
FFFFFFFFFFF800000000000000
FFFFFFFFFF0000000000000000
FFFFFFFFF00000000000000000
FFFFFFFE000000000000000000
FFFFFFE0000000000000000000
FFFFFC00000000000000000000
FFFFE000000000000000000000
FFFFE000000000000000000000
FFFFE000000000000000000000
FFFFE000000000000000000000
FFFFE000000000000000000000
FFFFE000000000000000000000
FFFFE000000000000000000000
FFFFE000000000000000000000
FFFFE000000000000000000000
FFFFE000000000000000000000
FFFFE000000000000000000000
FFFFE000000000000000000000
FFFFE000000000000000000000
FFFFE000000000000000000000
FFFFE000000000000000000000
FFFFE000000000000000000000
FFFFE000000000000000000000
FFFFE000000000000000000000
7FFFC000000000000000000000
7FFFC000000000000000000000
3FFF8000000000000000000000
1FFF0000000000000000000000
0FFE0000000000000000000000
03F00000000000000000000000
ENDCHAR
STARTCHAR $0051
ENCODING 81
SWIDTH 890 0
DWIDTH 114 0
BBX 100 116 0 -21
BITMAP
000000FFFFFFFFFFFFF0000000
00000FFFFFFFFFFFFFFF000000
00003FFFFFFFFFFFFFFFC00000
0000FFFFFFFFFFFFFFFFF00000
0003FFFFFFFFFFFFFFFFFC0000
0007FFFFFFFFFFFFFFFFFE0000
001FFFFFFFFFFFFFFFFFFF8000
003FFFFFFFFFFFFFFFFFFFC000
007FFFFFFFFFFFFFFFFFFFE000
00FFFFFFFFFFFFFFFFFFFFF000
01FFFFFFFFFFFFFFFFFFFFF800
03FFFFFFFFFFFFFFFFFFFFFC00
03FFFFFFFFFFFFFFFFFFFFFC00
07FFFFFFFFFFFFFFFFFFFFFE00
0FFFFFFFFFFFFFFFFFFFFFFF00
0FFFFFFFFFFFFFFFFFFFFFFF00
1FFFFFFFFFFFFFFFFFFFFFFF80
1FFFFFFFFFFFFFFFFFFFFFFF80
3FFFFFFFFFFFFFFFFFFFFFFFC0
3FFFFFE000000000007FFFFFC0
7FFFFF0000000000001FFFFFE0
7FFFFE00000000000007FFFFE0
7FFFFC00000000000003FFFFE0
7FFFF800000000000001FFFFE0
FFFFF000000000000001FFFFF0
FFFFF000000000000000FFFFF0
FFFFF000000000000000FFFFF0
FFFFE0000000000000007FFFF0
FFFFE0000000000000007FFFF0
FFFFE0000000000000007FFFF0
FFFFE0000000000000007FFFF0
FFFFE0000000000000007FFFF0
FFFFE0000000000000007FFFF0
FFFFE0000000000000007FFFF0
FFFFE0000000000000007FFFF0
FFFFE0000000000000007FFFF0
FFFFE0000000000000007FFFF0
FFFFE0000000000000007FFFF0
FFFFE0000000000000007FFFF0
FFFFE0000000000000007FFFF0
FFFFE0000000000000007FFFF0
FFFFE0000000000000007FFFF0
FFFFE0000000000000007FFFF0
FFFFE0000000000000007FFFF0
FFFFE0000000000000007FFFF0
FFFFE0000000000000007FFFF0
FFFFE0000000000000007FFFF0
FFFFE0000000000000007FFFF0
FFFFE0000000000000007FFFF0
FFFFE0000000000000007FFFF0
FFFFE0000000000000007FFFF0
FFFFE0000000000000007FFFF0
FFFFE0000000000000007FFFF0
FFFFE0000000000000007FFFF0
FFFFE0000000000000007FFFF0
FFFFE0000000000000007FFFF0
FFFFE0000000000000007FFFF0
FFFFE0000000000000007FFFF0
FFFFE0000000000000007FFFF0
FFFFE0000000000000007FFFF0
FFFFE0000000000000007FFFF0
FFFFE0000000000000007FFFF0
FFFFE0000000000000007FFFF0
FFFFE0000000000000007FFFF0
FFFFE0000000000000007FFFF0
FFFFE0000000000000007FFFF0
FFFFE0000000000000007FFFF0
FFFFE0000000000000007FFFF0
FFFFE0000000000000007FFFF0
FFFFF000000000000000FFFFF0
FFFFF000000000000000FFFFF0
FFFFF000000000000000FFFFF0
7FFFF800000000000001FFFFE0
7FFFFC00000000000003FFFFE0
7FFFFE00000000000007FFFFE0
7FFFFF0000000000000FFFFFE0
3FFFFFE000000000007FFFFFC0
3FFFFFFF800000FFFFFFFFFFC0
1FFFFFFFE00007FFFFFFFFFF80
1FFFFFFFF0001FFFFFFFFFFF80
0FFFFFFFF8007FFFFFFFFFFF00
0FFFFFFFFC00FFFFFFFFFFFF00
07FFFFFFFC01FFFFFFFFFFFE00
03FFFFFFFE03FFFFFFFFFFFC00
03FFFFFFFE07FFFFFFFFFFFC00
01FFFFFFFE0FFFFFFFFFFFF800
00FFFFFFFE1FFFFFFFFFFFF000
007FFFFFFE3FFFFFFFFFFFE000
003FFFFFFE3FFFFFFFFFFFC000
001FFFFFFE7FFFFFFFFFFF8000
0007FFFFFC7FFFFFFFFFFE0000
0003FFFFFCFFFFFFFFFFFC0000
0000FFFFF8FFFFFFFFFFF00000
00003FFFF0FFFFFFFFFFC00000
00000FFFE1FFFFFFFFFF000000
000000FF81FFFFFFFFF0000000
0000000001FFFFE00000000000
0000000001FFFFC00000000000
0000000001FFFFC00000000000
0000000001FFFFC00000000000
0000000001FFFFC00000000000
0000000001FFFFC00000000000
0000000001FFFFC00000000000
0000000001FFFFC00000000000
0000000001FFFFC00000000000
0000000001FFFFC00000000000
0000000001FFFFC00000000000
0000000001FFFFC00000000000
0000000001FFFFC00000000000
0000000001FFFFC00000000000
0000000000FFFF800000000000
0000000000FFFF800000000000
00000000007FFF000000000000
00000000003FFE000000000000
00000000001FFC000000000000
000000000007F0000000000000
ENDCHAR
STARTCHAR $0052
ENCODING 82
SWIDTH 890 0
DWIDTH 114 0
BBX 100 97 0 -2
BITMAP
00003FFFFFFFFFFFFFF0000000
0003FFFFFFFFFFFFFFFF000000
000FFFFFFFFFFFFFFFFFC00000
003FFFFFFFFFFFFFFFFFF00000
007FFFFFFFFFFFFFFFFFFC0000
00FFFFFFFFFFFFFFFFFFFF0000
01FFFFFFFFFFFFFFFFFFFF8000
03FFFFFFFFFFFFFFFFFFFFC000
07FFFFFFFFFFFFFFFFFFFFE000
0FFFFFFFFFFFFFFFFFFFFFF000
1FFFFFFFFFFFFFFFFFFFFFF800
1FFFFFFFFFFFFFFFFFFFFFFC00
3FFFFFFFFFFFFFFFFFFFFFFC00
3FFFFFFFFFFFFFFFFFFFFFFE00
7FFFFFFFFFFFFFFFFFFFFFFF00
7FFFFFFFFFFFFFFFFFFFFFFF00
7FFFFFFFFFFFFFFFFFFFFFFF80
7FFFFFFFFFFFFFFFFFFFFFFF80
FFFFFFFFFFFFFFFFFFFFFFFFC0
FFFFF00000000000007FFFFFC0
FFFFE00000000000000FFFFFE0
FFFFE000000000000007FFFFE0
FFFFE000000000000003FFFFE0
FFFFE000000000000001FFFFE0
FFFFE000000000000000FFFFF0
FFFFE000000000000000FFFFF0
FFFFE000000000000000FFFFF0
FFFFE0000000000000007FFFF0
FFFFE0000000000000007FFFF0
FFFFE0000000000000007FFFF0
FFFFE0000000000000007FFFF0
FFFFE0000000000000007FFFF0
FFFFE0000000000000007FFFF0
FFFFE000000000000000FFFFF0
FFFFE000000000000000FFFFF0
FFFFE000000000000000FFFFE0
FFFFE000000000000001FFFFE0
FFFFE000000000000003FFFFE0
FFFFE000000000000007FFFFE0
FFFFE00000000000000FFFFFC0
FFFFE00000000000007FFFFFC0
FFFFE0000000000007FFFFFFC0
FFFFE00000000000FFFFFFFF80
FFFFE0000000000FFFFFFFFF80
FFFFE000000000FFFFFFFFFF00
FFFFE00000001FFFFFFFFFFE00
FFFFE0000001FFFFFFFFFFFE00
FFFFE000001FFFFFFFFFFFFC00
FFFFE00000FFFFFFFFFFFFF800
FFFFE00003FFFFFFFFFFFFF000
FFFFE00007FFFFFFFFFFFFE000
FFFFE0001FFFFFFFFFFFFFC000
FFFFE0003FFFFFFFFFFFFF8000
FFFFE0007FFFFFFFFFFFFF0000
FFFFE000FFFFFFFFFFFFFE0000
FFFFE001FFFFFFFFFFFFF80000
FFFFE003FFFFFFFFFFFFE00000
FFFFE003FFFFFFFFFFFF800000
FFFFE007FFFFFFFFFFF8000000
FFFFE007FFFFFFFFFF80000000
FFFFE00FFFFFFFFFF800000000
FFFFE00FFFFFFFFF0000000000
FFFFE01FFFFFFFF00000000000
FFFFE01FFFFFFE000000000000
FFFFE01FFFFFE0000000000000
FFFFE03FFFFF00000000000000
FFFFE03FFFFC00000000000000
FFFFE03FFFFC00000000000000
FFFFE03FFFF800000000000000
FFFFE03FFFF800000000000000
FFFFE03FFFF800000000000000
FFFFE03FFFF800000000000000
FFFFE03FFFF800000000000000
FFFFE03FFFFC00000000000000
FFFFE03FFFFE00000000000000
FFFFE03FFFFF00000000000000
FFFFE01FFFFFFFFFFFFFFFC000
FFFFE01FFFFFFFFFFFFFFFF000
FFFFE01FFFFFFFFFFFFFFFFC00
FFFFE00FFFFFFFFFFFFFFFFC00
FFFFE00FFFFFFFFFFFFFFFFE00
FFFFE00FFFFFFFFFFFFFFFFF00
FFFFE007FFFFFFFFFFFFFFFF00
FFFFE003FFFFFFFFFFFFFFFF00
FFFFE003FFFFFFFFFFFFFFFF00
FFFFE001FFFFFFFFFFFFFFFF80
FFFFE000FFFFFFFFFFFFFFFF00
FFFFE0007FFFFFFFFFFFFFFF00
FFFFE0003FFFFFFFFFFFFFFF00
FFFFE0001FFFFFFFFFFFFFFF00
FFFFE0000FFFFFFFFFFFFFFE00
7FFFC00007FFFFFFFFFFFFFC00
7FFFC00001FFFFFFFFFFFFF800
3FFF8000003FFFFFFFFFFFF000
1FFF00000007FFFFFFFFFFC000
0FFE0000000000000000000000
03F80000000000000000000000
ENDCHAR
STARTCHAR $0053
ENCODING 83
SWIDTH 890 0
DWIDTH 114 0
BBX 99 95 0 0
BITMAP
00001FFFFFFFFFFFFFFFFFF800
0000FFFFFFFFFFFFFFFFFFFE00
0007FFFFFFFFFFFFFFFFFFFF00
000FFFFFFFFFFFFFFFFFFFFF80
003FFFFFFFFFFFFFFFFFFFFFC0
007FFFFFFFFFFFFFFFFFFFFFC0
00FFFFFFFFFFFFFFFFFFFFFFE0
01FFFFFFFFFFFFFFFFFFFFFFE0
03FFFFFFFFFFFFFFFFFFFFFFE0
07FFFFFFFFFFFFFFFFFFFFFFE0
0FFFFFFFFFFFFFFFFFFFFFFFE0
0FFFFFFFFFFFFFFFFFFFFFFFE0
1FFFFFFFFFFFFFFFFFFFFFFFC0
1FFFFFFFFFFFFFFFFFFFFFFFC0
3FFFFFFFFFFFFFFFFFFFFFFF80
3FFFFFFFFFFFFFFFFFFFFFFF00
7FFFFFFFFFFFFFFFFFFFFFFE00
7FFFFFFFFFFFFFFFFFFFFFF800
7FFFFC00000000000000000000
7FFFF000000000000000000000
FFFFE000000000000000000000
FFFFE000000000000000000000
FFFFC000000000000000000000
FFFFC000000000000000000000
FFFFC000000000000000000000
FFFFC000000000000000000000
FFFFE000000000000000000000
FFFFE000000000000000000000
FFFFF000000000000000000000
7FFFF800000000000000000000
7FFFFF00000000000000000000
7FFFFFF0000000000000000000
3FFFFFFE000000000000000000
3FFFFFFFC00000000000000000
3FFFFFFFFC0000000000000000
1FFFFFFFFF8000000000000000
1FFFFFFFFFF800000000000000
0FFFFFFFFFFF00000000000000
07FFFFFFFFFFE0000000000000
03FFFFFFFFFFFE000000000000
03FFFFFFFFFFFFC00000000000
01FFFFFFFFFFFFFC0000000000
00FFFFFFFFFFFFFF8000000000
007FFFFFFFFFFFFFF000000000
001FFFFFFFFFFFFFFF00000000
000FFFFFFFFFFFFFFFE0000000
0001FFFFFFFFFFFFFFFE000000
00007FFFFFFFFFFFFFFFC00000
000007FFFFFFFFFFFFFFF80000
000000FFFFFFFFFFFFFFFE0000
0000001FFFFFFFFFFFFFFF0000
00000001FFFFFFFFFFFFFFC000
000000003FFFFFFFFFFFFFE000
0000000003FFFFFFFFFFFFF000
00000000007FFFFFFFFFFFF800
00000000000FFFFFFFFFFFFC00
000000000000FFFFFFFFFFFC00
0000000000001FFFFFFFFFFE00
00000000000001FFFFFFFFFF00
000000000000003FFFFFFFFF00
0000000000000007FFFFFFFF80
00000000000000007FFFFFFF80
00000000000000000FFFFFFFC0
000000000000000000FFFFFFC0
0000000000000000001FFFFFC0
00000000000000000003FFFFE0
00000000000000000001FFFFE0
00000000000000000000FFFFE0
000000000000000000007FFFE0
000000000000000000007FFFE0
000000000000000000007FFFE0
000000000000000000007FFFE0
000000000000000000007FFFE0
000000000000000000007FFFE0
00000000000000000000FFFFE0
00000000000000000001FFFFE0
00000000000000000003FFFFC0
03FFFFFFFFFFFFFFFFFFFFFFC0
0FFFFFFFFFFFFFFFFFFFFFFFC0
1FFFFFFFFFFFFFFFFFFFFFFFC0
3FFFFFFFFFFFFFFFFFFFFFFF80
7FFFFFFFFFFFFFFFFFFFFFFF80
7FFFFFFFFFFFFFFFFFFFFFFF00
FFFFFFFFFFFFFFFFFFFFFFFF00
FFFFFFFFFFFFFFFFFFFFFFFE00
FFFFFFFFFFFFFFFFFFFFFFFC00
FFFFFFFFFFFFFFFFFFFFFFF800
FFFFFFFFFFFFFFFFFFFFFFF800
FFFFFFFFFFFFFFFFFFFFFFF000
7FFFFFFFFFFFFFFFFFFFFFC000
7FFFFFFFFFFFFFFFFFFFFF8000
3FFFFFFFFFFFFFFFFFFFFF0000
1FFFFFFFFFFFFFFFFFFFFC0000
0FFFFFFFFFFFFFFFFFFFF00000
03FFFFFFFFFFFFFFFFFF000000
ENDCHAR
STARTCHAR $0054
ENCODING 84
SWIDTH 882 0
DWIDTH 113 0
BBX 103 97 0 -2
BITMAP
03FFFFFFFFFFFFFFFFFFFFFF80
0FFFFFFFFFFFFFFFFFFFFFFFE0
1FFFFFFFFFFFFFFFFFFFFFFFF0
3FFFFFFFFFFFFFFFFFFFFFFFF8
7FFFFFFFFFFFFFFFFFFFFFFFFC
7FFFFFFFFFFFFFFFFFFFFFFFFC
FFFFFFFFFFFFFFFFFFFFFFFFFC
FFFFFFFFFFFFFFFFFFFFFFFFFE
FFFFFFFFFFFFFFFFFFFFFFFFFE
FFFFFFFFFFFFFFFFFFFFFFFFFE
FFFFFFFFFFFFFFFFFFFFFFFFFE
FFFFFFFFFFFFFFFFFFFFFFFFFE
FFFFFFFFFFFFFFFFFFFFFFFFFC
7FFFFFFFFFFFFFFFFFFFFFFFFC
7FFFFFFFFFFFFFFFFFFFFFFFFC
3FFFFFFFFFFFFFFFFFFFFFFFF8
1FFFFFFFFFFFFFFFFFFFFFFFF0
0FFFFFFFFFFFFFFFFFFFFFFFE0
03FFFFFFFFFFFFFFFFFFFFFF80
00000000003FFFF80000000000
00000000003FFFF80000000000
00000000003FFFF80000000000
00000000003FFFF80000000000
00000000003FFFF80000000000
00000000003FFFF80000000000
00000000003FFFF80000000000
00000000003FFFF80000000000
00000000003FFFF80000000000
00000000003FFFF80000000000
00000000003FFFF80000000000
00000000003FFFF80000000000
00000000003FFFF80000000000
00000000003FFFF80000000000
00000000003FFFF80000000000
00000000003FFFF80000000000
00000000003FFFF80000000000
00000000003FFFF80000000000
00000000003FFFF80000000000
00000000003FFFF80000000000
00000000003FFFF80000000000
00000000003FFFF80000000000
00000000003FFFF80000000000
00000000003FFFF80000000000
00000000003FFFF80000000000
00000000003FFFF80000000000
00000000003FFFF80000000000
00000000003FFFF80000000000
00000000003FFFF80000000000
00000000003FFFF80000000000
00000000003FFFF80000000000
00000000003FFFF80000000000
00000000003FFFF80000000000
00000000003FFFF80000000000
00000000003FFFF80000000000
00000000003FFFF80000000000
00000000003FFFF80000000000
00000000003FFFF80000000000
00000000003FFFF80000000000
00000000003FFFF80000000000
00000000003FFFF80000000000
00000000003FFFF80000000000
00000000003FFFF80000000000
00000000003FFFF80000000000
00000000003FFFF80000000000
00000000003FFFF80000000000
00000000003FFFF80000000000
00000000003FFFF80000000000
00000000003FFFF80000000000
00000000003FFFF80000000000
00000000003FFFF80000000000
00000000003FFFF80000000000
00000000003FFFF80000000000
00000000003FFFF80000000000
00000000003FFFF80000000000
00000000003FFFF80000000000
00000000003FFFF80000000000
00000000003FFFF80000000000
00000000003FFFF80000000000
00000000003FFFF80000000000
00000000003FFFF80000000000
00000000003FFFF80000000000
00000000003FFFF80000000000
00000000003FFFF80000000000
00000000003FFFF80000000000
00000000003FFFF80000000000
00000000003FFFF80000000000
00000000003FFFF80000000000
00000000003FFFF80000000000
00000000003FFFF80000000000
00000000003FFFF80000000000
00000000003FFFF80000000000
00000000001FFFF00000000000
00000000001FFFF00000000000
00000000000FFFE00000000000
000000000007FFC00000000000
000000000003FF800000000000
000000000000FC000000000000
ENDCHAR
STARTCHAR $0055
ENCODING 85
SWIDTH 890 0
DWIDTH 114 0
BBX 102 97 0 -1
BITMAP
01F80000000000000000003F00
0FFE000000000000000001FFC0
1FFF000000000000000003FFE0
3FFF800000000000000007FFF0
3FFFC00000000000000007FFF8
7FFFC0000000000000000FFFF8
7FFFE0000000000000000FFFFC
FFFFE0000000000000001FFFFC
FFFFE0000000000000001FFFFC
FFFFE0000000000000001FFFFC
FFFFE0000000000000001FFFFC
FFFFE0000000000000001FFFFC
FFFFE0000000000000001FFFFC
FFFFE0000000000000001FFFFC
FFFFE0000000000000001FFFFC
FFFFE0000000000000001FFFFC
FFFFE0000000000000001FFFFC
FFFFE0000000000000001FFFFC
FFFFE0000000000000001FFFFC
FFFFE0000000000000001FFFFC
FFFFE0000000000000001FFFFC
FFFFE0000000000000001FFFFC
FFFFE0000000000000001FFFFC
FFFFE0000000000000001FFFFC
FFFFE0000000000000001FFFFC
FFFFE0000000000000001FFFFC
FFFFE0000000000000001FFFFC
FFFFE0000000000000001FFFFC
FFFFE0000000000000001FFFFC
FFFFE0000000000000001FFFFC
FFFFE0000000000000001FFFFC
FFFFE0000000000000001FFFFC
FFFFE0000000000000001FFFFC
FFFFE0000000000000001FFFFC
FFFFE0000000000000001FFFFC
FFFFE0000000000000001FFFFC
FFFFE0000000000000001FFFFC
FFFFE0000000000000001FFFFC
FFFFE0000000000000001FFFFC
FFFFE0000000000000001FFFFC
FFFFE0000000000000001FFFFC
FFFFE0000000000000001FFFFC
FFFFE0000000000000001FFFFC
FFFFE0000000000000001FFFFC
FFFFE0000000000000001FFFFC
FFFFE0000000000000001FFFFC
FFFFE0000000000000001FFFFC
FFFFE0000000000000001FFFFC
FFFFE0000000000000001FFFFC
FFFFE0000000000000001FFFFC
FFFFE0000000000000001FFFFC
FFFFE0000000000000001FFFFC
FFFFE0000000000000001FFFFC
FFFFE0000000000000001FFFFC
FFFFE0000000000000001FFFFC
FFFFE0000000000000001FFFFC
FFFFE0000000000000001FFFFC
FFFFE0000000000000001FFFFC
FFFFE0000000000000001FFFFC
FFFFE0000000000000001FFFFC
FFFFE0000000000000001FFFFC
FFFFE0000000000000001FFFFC
FFFFE0000000000000001FFFFC
FFFFE0000000000000001FFFFC
FFFFE0000000000000001FFFFC
FFFFE0000000000000001FFFFC
FFFFE0000000000000001FFFFC
FFFFE0000000000000001FFFFC
FFFFE0000000000000001FFFFC
FFFFE0000000000000001FFFFC
FFFFF0000000000000003FFFFC
FFFFF0000000000000003FFFFC
7FFFF8000000000000007FFFFC
7FFFF8000000000000007FFFF8
7FFFFC00000000000000FFFFF8
7FFFFE00000000000001FFFFF8
3FFFFF80000000000003FFFFF8
3FFFFFE000000000001FFFFFF0
3FFFFFFFFFFFFFFFFFFFFFFFF0
1FFFFFFFFFFFFFFFFFFFFFFFE0
1FFFFFFFFFFFFFFFFFFFFFFFE0
0FFFFFFFFFFFFFFFFFFFFFFFC0
0FFFFFFFFFFFFFFFFFFFFFFFC0
07FFFFFFFFFFFFFFFFFFFFFF80
03FFFFFFFFFFFFFFFFFFFFFF00
01FFFFFFFFFFFFFFFFFFFFFF00
01FFFFFFFFFFFFFFFFFFFFFE00
00FFFFFFFFFFFFFFFFFFFFFC00
007FFFFFFFFFFFFFFFFFFFF800
003FFFFFFFFFFFFFFFFFFFF000
000FFFFFFFFFFFFFFFFFFFE000
0007FFFFFFFFFFFFFFFFFF8000
0003FFFFFFFFFFFFFFFFFF0000
0000FFFFFFFFFFFFFFFFFC0000
00003FFFFFFFFFFFFFFFF00000
000007FFFFFFFFFFFFFFC00000
0000007FFFFFFFFFFFFC000000
ENDCHAR
STARTCHAR $0056
ENCODING 86
SWIDTH 890 0
DWIDTH 114 0
BBX 109 97 0 -1
BITMAP
01F8000000000000000000007E00
0FFE00000000000000000003FF80
1FFF00000000000000000007FFC0
3FFF8000000000000000000FFFE0
7FFFC000000000000000000FFFF0
7FFFC000000000000000001FFFF0
FFFFE000000000000000001FFFF8
FFFFE000000000000000003FFFF8
FFFFE000000000000000003FFFF8
FFFFE000000000000000003FFFF8
FFFFF000000000000000003FFFF8
FFFFF000000000000000007FFFF8
FFFFF000000000000000007FFFF8
7FFFF000000000000000007FFFF0
7FFFF000000000000000007FFFF0
7FFFF800000000000000007FFFF0
7FFFF80000000000000000FFFFF0
3FFFF80000000000000000FFFFF0
3FFFF80000000000000000FFFFE0
3FFFFC0000000000000000FFFFE0
3FFFFC0000000000000001FFFFE0
3FFFFC0000000000000001FFFFE0
1FFFFC0000000000000001FFFFC0
1FFFFC0000000000000001FFFFC0
1FFFFE0000000000000001FFFFC0
1FFFFE0000000000000003FFFFC0
0FFFFE0000000000000003FFFFC0
0FFFFE0000000000000003FFFF80
0FFFFF0000000000000003FFFF80
0FFFFF0000000000000007FFFF80
0FFFFF0000000000000007FFFF80
07FFFF0000000000000007FFFF00
07FFFF0000000000000007FFFF00
07FFFF8000000000000007FFFF00
07FFFF800000000000000FFFFF00
03FFFF800000000000000FFFFF00
03FFFF800000000000000FFFFE00
03FFFFC00000000000000FFFFE00
03FFFFC00000000000001FFFFE00
03FFFFC00000000000001FFFFE00
01FFFFC00000000000001FFFFC00
01FFFFC00000000000001FFFFC00
01FFFFE00000000000001FFFFC00
01FFFFE00000000000003FFFFC00
00FFFFE00000000000003FFFFC00
00FFFFE00000000000003FFFF800
00FFFFF00000000000003FFFF800
00FFFFF00000000000007FFFF800
00FFFFF00000000000007FFFF800
007FFFF00000000000007FFFF000
007FFFF00000000000007FFFF000
007FFFF80000000000007FFFF000
007FFFF8000000000000FFFFF000
003FFFF8000000000000FFFFF000
003FFFF8000000000000FFFFE000
003FFFFC000000000000FFFFE000
003FFFFC000000000001FFFFE000
003FFFFC000000000001FFFFE000
001FFFFC000000000001FFFFC000
001FFFFC000000000001FFFFC000
001FFFFE000000000001FFFFC000
001FFFFE000000000003FFFFC000
000FFFFE000000000003FFFFC000
000FFFFE000000000003FFFF8000
000FFFFF000000000003FFFF8000
000FFFFF000000000007FFFF8000
000FFFFF000000000007FFFF8000
0007FFFF000000000007FFFF0000
0007FFFF000000000007FFFF0000
0007FFFF800000000007FFFF0000
0007FFFF80000000000FFFFF0000
0003FFFF80000000000FFFFF0000
0003FFFFC0000000001FFFFE0000
0003FFFFC0000000001FFFFE0000
0003FFFFE0000000003FFFFE0000
0001FFFFF0000000007FFFFE0000
0001FFFFFC00000001FFFFFC0000
0001FFFFFF00000007FFFFFC0000
0000FFFFFFFFFFFFFFFFFFFC0000
0000FFFFFFFFFFFFFFFFFFF80000
0000FFFFFFFFFFFFFFFFFFF80000
00007FFFFFFFFFFFFFFFFFF00000
00003FFFFFFFFFFFFFFFFFF00000
00003FFFFFFFFFFFFFFFFFE00000
00001FFFFFFFFFFFFFFFFFC00000
00000FFFFFFFFFFFFFFFFF800000
000007FFFFFFFFFFFFFFFF800000
000007FFFFFFFFFFFFFFFF000000
000003FFFFFFFFFFFFFFFE000000
000000FFFFFFFFFFFFFFFC000000
0000007FFFFFFFFFFFFFF0000000
0000003FFFFFFFFFFFFFE0000000
0000000FFFFFFFFFFFFFC0000000
00000007FFFFFFFFFFFF00000000
00000001FFFFFFFFFFFC00000000
000000003FFFFFFFFFE000000000
0000000003FFFFFFFE0000000000
ENDCHAR
STARTCHAR $0057
ENCODING 87
SWIDTH 1148 0
DWIDTH 147 0
BBX 98 97 0 -1
BITMAP
03F800000007E000000007E000
0FFE0000001FF80000001FF800
1FFF0000003FFE0000003FFE00
3FFF8000007FFF0000007FFF00
7FFFC00000FFFF000000FFFF00
7FFFC00000FFFF800000FFFF80
FFFFC00001FFFF800001FFFF80
FFFFE00001FFFFC00001FFFFC0
FFFFE00001FFFFC00001FFFFC0
FFFFE00001FFFFC00001FFFFC0
FFFFE00001FFFFC00001FFFFC0
FFFFE00001FFFFC00001FFFFC0
FFFFE00001FFFFC00001FFFFC0
FFFFE00001FFFFC00001FFFFC0
FFFFE00001FFFFC00001FFFFC0
FFFFE00001FFFFC00001FFFFC0
FFFFE00001FFFFC00001FFFFC0
FFFFE00001FFFFC00001FFFFC0
FFFFE00001FFFFC00001FFFFC0
FFFFE00001FFFFC00001FFFFC0
FFFFE00001FFFFC00001FFFFC0
FFFFE00001FFFFC00001FFFFC0
FFFFE00001FFFFC00001FFFFC0
FFFFE00001FFFFC00001FFFFC0
FFFFE00001FFFFC00001FFFFC0
FFFFE00001FFFFC00001FFFFC0
FFFFE00001FFFFC00001FFFFC0
FFFFE00001FFFFC00001FFFFC0
FFFFE00001FFFFC00001FFFFC0
FFFFE00001FFFFC00001FFFFC0
FFFFE00001FFFFC00001FFFFC0
FFFFE00001FFFFC00001FFFFC0
FFFFE00001FFFFC00001FFFFC0
FFFFE00001FFFFC00001FFFFC0
FFFFE00001FFFFC00001FFFFC0
FFFFE00001FFFFC00001FFFFC0
FFFFE00001FFFFC00001FFFFC0
FFFFE00001FFFFC00001FFFFC0
FFFFE00001FFFFC00001FFFFC0
FFFFE00001FFFFC00001FFFFC0
FFFFE00001FFFFC00001FFFFC0
FFFFE00001FFFFC00001FFFFC0
FFFFE00001FFFFC00001FFFFC0
FFFFE00001FFFFC00001FFFFC0
FFFFE00001FFFFC00001FFFFC0
FFFFE00001FFFFC00001FFFFC0
FFFFE00001FFFFC00001FFFFC0
FFFFE00001FFFFC00001FFFFC0
FFFFE00001FFFFC00001FFFFC0
FFFFE00001FFFFC00001FFFFC0
FFFFE00001FFFFC00001FFFFC0
FFFFE00001FFFFC00001FFFFC0
FFFFE00001FFFFC00001FFFFC0
FFFFE00001FFFFC00001FFFFC0
FFFFE00001FFFFC00001FFFFC0
FFFFE00001FFFFC00001FFFFC0
FFFFE00001FFFFC00001FFFFC0
FFFFE00001FFFFC00001FFFFC0
FFFFE00001FFFFC00001FFFFC0
FFFFE00001FFFFC00001FFFFC0
FFFFE00001FFFFC00001FFFFC0
FFFFE00001FFFFC00001FFFFC0
FFFFE00001FFFFC00001FFFFC0
FFFFE00001FFFFC00001FFFFC0
FFFFE00001FFFFC00001FFFFC0
FFFFE00001FFFFC00001FFFFC0
FFFFE00001FFFFC00001FFFFC0
FFFFE00001FFFFC00001FFFFC0
FFFFE00001FFFFC00001FFFFC0
FFFFE00001FFFFC00001FFFFC0
FFFFE00001FFFFC00001FFFFC0
FFFFF00001FFFFC00003FFFFC0
FFFFF00001FFFFC00003FFFFC0
7FFFF80001FFFFC00007FFFF80
7FFFFC0001FFFFC0000FFFFF80
7FFFFE0001FFFFC0001FFFFF80
7FFFFF0001FFFFC0003FFFFF80
3FFFFFC001FFFFC000FFFFFF00
3FFFFFF007FFFFF003FFFFFF00
1FFFFFFFFFFFFFFFFFFFFFFE00
1FFFFFFFFFFFFFFFFFFFFFFE00
0FFFFFFFFFFFFFFFFFFFFFFC00
0FFFFFFFFFFFFFFFFFFFFFFC00
07FFFFFFFFFFFFFFFFFFFFF800
03FFFFFFFFFFFFFFFFFFFFF000
03FFFFFFFFFFFFFFFFFFFFF000
01FFFFFFFFFFFFFFFFFFFFE000
00FFFFFFFFFFFFFFFFFFFFC000
007FFFFFFFFFFFFFFFFFFF8000
003FFFFFFFFFFFFFFFFFFF0000
001FFFFFFFFFFFFFFFFFFE0000
0007FFFFFFFFFFFFFFFFF80000
0003FFFFFFFFFFFFFFFFF00000
0000FFFFFFFFFFFFFFFFC00000
00003FFFFFFFFFFFFFFF000000
000007FFFFFFFFFFFFF8000000
0000007FFFFFFFFFFF80000000
ENDCHAR
STARTCHAR $0058
ENCODING 88
SWIDTH 890 0
DWIDTH 114 0
BBX 109 98 0 -2
BITMAP
01F800000000000000000000FC00
07FE00000000000000000003FF80
1FFF00000000000000000007FFC0
3FFF8000000000000000000FFFE0
3FFFC000000000000000001FFFF0
7FFFC000000000000000001FFFF0
7FFFE000000000000000003FFFF8
FFFFE000000000000000003FFFF8
FFFFE000000000000000003FFFF8
FFFFF000000000000000003FFFF8
FFFFF000000000000000007FFFF8
FFFFF000000000000000007FFFF8
7FFFF000000000000000007FFFF8
7FFFF000000000000000007FFFF0
7FFFF800000000000000007FFFF0
7FFFF80000000000000000FFFFF0
7FFFF80000000000000000FFFFF0
3FFFF80000000000000000FFFFF0
3FFFFC0000000000000000FFFFE0
3FFFFC0000000000000000FFFFE0
3FFFFC0000000000000001FFFFE0
3FFFFC0000000000000001FFFFE0
1FFFFC0000000000000001FFFFE0
1FFFFE0000000000000001FFFFC0
1FFFFE0000000000000003FFFFC0
1FFFFE0000000000000003FFFFC0
0FFFFE0000000000000003FFFFC0
0FFFFE0000000000000003FFFFC0
0FFFFF0000000000000003FFFF80
0FFFFF0000000000000007FFFF80
0FFFFF8000000000000007FFFF80
07FFFF800000000000000FFFFF80
07FFFFC00000000000001FFFFF80
07FFFFE00000000000003FFFFF00
07FFFFF80000000000007FFFFF00
03FFFFFE000000000003FFFFFF00
03FFFFFFFFFFFFFFFFFFFFFFFE00
01FFFFFFFFFFFFFFFFFFFFFFFE00
01FFFFFFFFFFFFFFFFFFFFFFFC00
00FFFFFFFFFFFFFFFFFFFFFFFC00
00FFFFFFFFFFFFFFFFFFFFFFF800
007FFFFFFFFFFFFFFFFFFFFFF800
007FFFFFFFFFFFFFFFFFFFFFF000
003FFFFFFFFFFFFFFFFFFFFFE000
001FFFFFFFFFFFFFFFFFFFFFE000
000FFFFFFFFFFFFFFFFFFFFFC000
0007FFFFFFFFFFFFFFFFFFFF8000
000FFFFFFFFFFFFFFFFFFFFF8000
001FFFFFFFFFFFFFFFFFFFFF8000
001FFFFFFFFFFFFFFFFFFFFFC000
003FFFFFFFFFFFFFFFFFFFFFE000
007FFFFFFFFFFFFFFFFFFFFFE000
007FFFFFFFFFFFFFFFFFFFFFF000
00FFFFFFFFFFFFFFFFFFFFFFF800
00FFFFFFFFFFFFFFFFFFFFFFF800
01FFFFFF000000000007FFFFF800
01FFFFFC000000000001FFFFFC00
01FFFFF8000000000000FFFFFC00
03FFFFF00000000000007FFFFE00
03FFFFE00000000000003FFFFE00
03FFFFC00000000000001FFFFE00
03FFFF800000000000001FFFFE00
07FFFF800000000000000FFFFF00
07FFFF800000000000000FFFFF00
07FFFF000000000000000FFFFF00
07FFFF0000000000000007FFFF00
07FFFF0000000000000007FFFF00
0FFFFF0000000000000007FFFF80
0FFFFF0000000000000007FFFF80
0FFFFE0000000000000003FFFF80
0FFFFE0000000000000003FFFF80
1FFFFE0000000000000003FFFFC0
1FFFFE0000000000000003FFFFC0
1FFFFE0000000000000003FFFFC0
1FFFFC0000000000000001FFFFC0
1FFFFC0000000000000001FFFFC0
3FFFFC0000000000000001FFFFE0
3FFFFC0000000000000001FFFFE0
3FFFFC0000000000000001FFFFE0
3FFFF80000000000000000FFFFE0
3FFFF80000000000000000FFFFF0
7FFFF80000000000000000FFFFF0
7FFFF80000000000000000FFFFF0
7FFFF000000000000000007FFFF0
7FFFF000000000000000007FFFF0
FFFFF000000000000000007FFFF8
FFFFF000000000000000007FFFF8
FFFFF000000000000000007FFFF8
FFFFE000000000000000003FFFF8
FFFFE000000000000000003FFFF8
FFFFE000000000000000003FFFF8
7FFFE000000000000000003FFFF8
7FFFC000000000000000001FFFF0
3FFFC000000000000000001FFFE0
3FFF8000000000000000000FFFE0
1FFF00000000000000000007FFC0
07FE00000000000000000003FF80
01F800000000000000000000FC00
ENDCHAR
STARTCHAR $0059
ENCODING 89
SWIDTH 890 0
DWIDTH 114 0
BBX 102 99 0 -2
BITMAP
03F80000000000000000000000
0FFE0000000000000000003E00
1FFF000000000000000000FF80
3FFF800000000000000003FFE0
7FFF800000000000000007FFF0
7FFFC00000000000000007FFF0
FFFFC0000000000000000FFFF8
FFFFE0000000000000000FFFF8
FFFFE0000000000000001FFFFC
FFFFE0000000000000001FFFFC
FFFFE0000000000000001FFFFC
FFFFE0000000000000001FFFFC
FFFFE0000000000000001FFFFC
FFFFE0000000000000001FFFFC
FFFFE0000000000000001FFFFC
FFFFE0000000000000001FFFFC
FFFFE0000000000000001FFFFC
FFFFE0000000000000001FFFFC
FFFFE0000000000000001FFFFC
FFFFE0000000000000001FFFFC
FFFFE0000000000000001FFFFC
FFFFE0000000000000001FFFFC
FFFFE0000000000000001FFFFC
FFFFE0000000000000001FFFFC
FFFFE0000000000000001FFFFC
FFFFE0000000000000001FFFFC
FFFFE0000000000000001FFFFC
FFFFE0000000000000001FFFFC
FFFFE0000000000000001FFFFC
FFFFE0000000000000001FFFFC
FFFFE0000000000000001FFFFC
FFFFE0000000000000001FFFFC
FFFFE0000000000000001FFFFC
FFFFE0000000000000001FFFFC
FFFFE0000000000000001FFFFC
FFFFE0000000000000001FFFFC
FFFFF0000000000000001FFFFC
FFFFF0000000000000001FFFFC
7FFFF8000000000000001FFFFC
7FFFF8000000000000001FFFFC
7FFFFC000000000000001FFFFC
7FFFFE000000000000001FFFFC
3FFFFF800000000000001FFFFC
3FFFFFF00000000000001FFFFC
3FFFFFFF0000000000001FFFFC
1FFFFFFFF800000000001FFFFC
1FFFFFFFFF80000000001FFFFC
0FFFFFFFFFFC000000001FFFFC
07FFFFFFFFFFC00000001FFFFC
07FFFFFFFFFFFE0000001FFFFC
03FFFFFFFFFFFFE000001FFFFC
01FFFFFFFFFFFFFF00001FFFFC
00FFFFFFFFFFFFFFF0001FFFFC
007FFFFFFFFFFFFFFF801FFFFC
003FFFFFFFFFFFFFFFF81FFFFC
001FFFFFFFFFFFFFFFFFDFFFFC
000FFFFFFFFFFFFFFFFFFFFFFC
0007FFFFFFFFFFFFFFFFFFFFFC
0001FFFFFFFFFFFFFFFFFFFFFC
00007FFFFFFFFFFFFFFFFFFFFC
00001FFFFFFFFFFFFFFFFFFFFC
000003FFFFFFFFFFFFFFFFFFFC
0000003FFFFFFFFFFFFFFFFFFC
00000003FFFFFFFFFFFFFFFFFC
000000001FFFFFFFFFFFFFFFFC
0000000001FFFFFFFFFFFFFFFC
00000000000FFFFFFFFFFFFFFC
000000000000FFFFFFFFFFFFFC
00000000000007FFFFFFFFFFFC
000000000000007FFFFFFFFFFC
0000000000000003FFFFFFFFFC
00000000000000003FFFFFFFFC
000000000000000003FFFFFFFC
0000000000000000001FFFFFFC
00000000000000000001FFFFFC
000000000000000000001FFFFC
000000000000000000001FFFFC
000000000000000000001FFFFC
000000000000000000001FFFFC
000000000000000000001FFFFC
000000000000000000001FFFFC
000000000000000000001FFFFC
000000000000000000001FFFFC
000000000000000000001FFFFC
000000000000000000001FFFFC
000000000000000000001FFFFC
000000000000000000001FFFFC
000000000000000000001FFFFC
000000000000000000001FFFFC
000000000000000000001FFFFC
000000000000000000001FFFFC
000000000000000000001FFFFC
000000000000000000001FFFFC
000000000000000000000FFFF8
000000000000000000000FFFF8
0000000000000000000007FFF0
0000000000000000000003FFE0
0000000000000000000001FFC0
00000000000000000000007F00
ENDCHAR
STARTCHAR $005A
ENCODING 90
SWIDTH 890 0
DWIDTH 114 0
BBX 99 95 0 0
BITMAP
03FFFFFFFFFFFFFFFFFF000000
0FFFFFFFFFFFFFFFFFFFE00000
1FFFFFFFFFFFFFFFFFFFFC0000
3FFFFFFFFFFFFFFFFFFFFE0000
7FFFFFFFFFFFFFFFFFFFFF8000
7FFFFFFFFFFFFFFFFFFFFFC000
FFFFFFFFFFFFFFFFFFFFFFE000
FFFFFFFFFFFFFFFFFFFFFFF000
FFFFFFFFFFFFFFFFFFFFFFF800
FFFFFFFFFFFFFFFFFFFFFFFC00
FFFFFFFFFFFFFFFFFFFFFFFE00
FFFFFFFFFFFFFFFFFFFFFFFE00
7FFFFFFFFFFFFFFFFFFFFFFF00
7FFFFFFFFFFFFFFFFFFFFFFF80
3FFFFFFFFFFFFFFFFFFFFFFF80
1FFFFFFFFFFFFFFFFFFFFFFF80
0FFFFFFFFFFFFFFFFFFFFFFFC0
03FFFFFFFFFFFFFFFFFFFFFFC0
00000000000000000007FFFFC0
00000000000000000001FFFFE0
00000000000000000000FFFFE0
00000000000000000000FFFFE0
000000000000000000007FFFE0
000000000000000000007FFFE0
000000000000000000007FFFE0
000000000000000000007FFFE0
000000000000000000007FFFE0
00000000000000000000FFFFE0
00000000000000000001FFFFE0
00000000000000000003FFFFC0
0000000000000000001FFFFFC0
000000000000000000FFFFFFC0
00000000000000000FFFFFFFC0
00000000000000007FFFFFFF80
0000000000000007FFFFFFFF80
000000000000003FFFFFFFFF00
00000000000003FFFFFFFFFF00
0000000000001FFFFFFFFFFE00
000000000000FFFFFFFFFFFC00
00000000000FFFFFFFFFFFFC00
00000000007FFFFFFFFFFFF800
0000000007FFFFFFFFFFFFF000
000000003FFFFFFFFFFFFFE000
00000001FFFFFFFFFFFFFFC000
0000001FFFFFFFFFFFFFFF0000
000000FFFFFFFFFFFFFFFE0000
00000FFFFFFFFFFFFFFFF80000
00007FFFFFFFFFFFFFFFC00000
0003FFFFFFFFFFFFFFFE000000
000FFFFFFFFFFFFFFFE0000000
001FFFFFFFFFFFFFFF00000000
007FFFFFFFFFFFFFF000000000
00FFFFFFFFFFFFFF8000000000
01FFFFFFFFFFFFFC0000000000
03FFFFFFFFFFFFC00000000000
07FFFFFFFFFFFE000000000000
07FFFFFFFFFFE0000000000000
0FFFFFFFFFFF00000000000000
1FFFFFFFFFF800000000000000
1FFFFFFFFF8000000000000000
3FFFFFFFFC0000000000000000
3FFFFFFFC00000000000000000
7FFFFFFE000000000000000000
7FFFFFE0000000000000000000
7FFFFF00000000000000000000
7FFFF800000000000000000000
FFFFF000000000000000000000
FFFFE000000000000000000000
FFFFC000000000000000000000
FFFFC000000000000000000000
FFFFC000000000000000000000
FFFFC000000000000000000000
FFFFC000000000000000000000
FFFFE000000000000000000000
FFFFE000000000000000000000
FFFFF000000000000000000000
7FFFFC00000000000000000000
7FFFFFFFFFFFFFFFFFFFFFF800
7FFFFFFFFFFFFFFFFFFFFFFE00
3FFFFFFFFFFFFFFFFFFFFFFF00
3FFFFFFFFFFFFFFFFFFFFFFF80
3FFFFFFFFFFFFFFFFFFFFFFFC0
1FFFFFFFFFFFFFFFFFFFFFFFC0
0FFFFFFFFFFFFFFFFFFFFFFFE0
0FFFFFFFFFFFFFFFFFFFFFFFE0
07FFFFFFFFFFFFFFFFFFFFFFE0
03FFFFFFFFFFFFFFFFFFFFFFE0
01FFFFFFFFFFFFFFFFFFFFFFE0
00FFFFFFFFFFFFFFFFFFFFFFE0
007FFFFFFFFFFFFFFFFFFFFFC0
003FFFFFFFFFFFFFFFFFFFFFC0
001FFFFFFFFFFFFFFFFFFFFF80
0007FFFFFFFFFFFFFFFFFFFF00
0000FFFFFFFFFFFFFFFFFFFE00
00001FFFFFFFFFFFFFFFFFF800
ENDCHAR
ENDFONT
